STARTFONT 2.3
FONT -FontForge-Syncopate-Book-R-Normal--28-280-72-72-P-210-ISO10646-1
SIZE 28 72 72  2
FONTBOUNDINGBOX 52 32 -6 -7
COMMENT "Generated by fontforge, http://fontforge.sourceforge.net"
COMMENT "Copyright (c) 2010 by Brian J. Bonislawsky DBA Astigmatic (AOETI). All rights reserved. Available under the Apache 2.0 licence.http://www.apache.org/licenses/LICENSE-2.0.html"
STARTPROPERTIES 40
FOUNDRY "FontForge"
FAMILY_NAME "Syncopate"
WEIGHT_NAME "Book"
SLANT "R"
SETWIDTH_NAME "Normal"
ADD_STYLE_NAME ""
PIXEL_SIZE 28
POINT_SIZE 280
RESOLUTION_X 72
RESOLUTION_Y 72
SPACING "P"
AVERAGE_WIDTH 210
CHARSET_REGISTRY "ISO10646"
CHARSET_ENCODING "1"
FONTNAME_REGISTRY ""
CHARSET_COLLECTIONS "ISO8859-2 ISO8859-9 ISO8859-4 ISO10646-1"
BITS_PER_PIXEL 2
FONT_NAME "Syncopate-Regular"
FACE_NAME "Syncopate Regular"
COPYRIGHT "Copyright (c) 2010 by Brian J. Bonislawsky DBA Astigmatic (AOETI). All rights reserved. Available under the Apache 2.0 licence.http://www.apache.org/licenses/LICENSE-2.0.html"
FONT_VERSION "001.001"
FONT_ASCENT 22
FONT_DESCENT 6
UNDERLINE_POSITION -3
UNDERLINE_THICKNESS 2
X_HEIGHT 18
CAP_HEIGHT 18
RAW_ASCENT 799
RAW_DESCENT 200
NORM_SPACE 11
RELATIVE_WEIGHT 40
RELATIVE_SETWIDTH 70
SUPERSCRIPT_X 0
SUPERSCRIPT_Y 8
SUPERSCRIPT_SIZE 5
SUBSCRIPT_X 0
SUBSCRIPT_Y 8
SUBSCRIPT_SIZE 5
AVG_LOWERCASE_WIDTH 239
AVG_UPPERCASE_WIDTH 229
ENDPROPERTIES
CHARS 370
STARTCHAR space
ENCODING 32
SWIDTH 375 0
DWIDTH 11 0
BBX 1 1 0 0
BITMAP
00
ENDCHAR
STARTCHAR exclam
ENCODING 33
SWIDTH 274 0
DWIDTH 8 0
BBX 3 19 2 0
BITMAP
7C
7C
7C
7C
38
38
38
38
38
38
38
28
24
24
00
00
7C
7C
7C
ENDCHAR
STARTCHAR quotedbl
ENCODING 34
SWIDTH 290 0
DWIDTH 8 0
BBX 6 6 1 13
BITMAP
F0B0
F0B0
E0B0
E0B0
A0B0
A0B0
ENDCHAR
STARTCHAR numbersign
ENCODING 35
SWIDTH 701 0
DWIDTH 20 0
BBX 18 19 1 0
BITMAP
0007001C00
000A002800
000D003400
000D003400
001C007000
0FFFFFFFD0
003400E000
003400D000
007001C000
00B001C000
00A0028000
00D0038000
BFFFFFFE00
01C0070000
02800B0000
02800A0000
03400D0000
07400D0000
07001C0000
ENDCHAR
STARTCHAR dollar
ENCODING 36
SWIDTH 767 0
DWIDTH 21 0
BBX 18 22 2 -1
BITMAP
0000D00000
0000D00000
01AFFE9400
0BFFFFFE00
3E50D05A00
B800D00000
B000D00000
B000D00000
7800D00000
2F90D00000
07FFE00000
006FFE4000
0001EFF800
0000D06F00
0000D00780
0000D002C0
0000D002D0
0000D007C0
A540D16F40
BFFFFFFD00
16BFFE9000
0000D00000
ENDCHAR
STARTCHAR percent
ENCODING 37
SWIDTH 992 0
DWIDTH 28 0
BBX 25 19 1 0
BITMAP
02FE4000074000
1E41E0001E0000
38007400380000
74002C00B00000
B0002C02D00000
B0002C07400000
7400281E000000
38007438000000
1E41E0B0000000
02FE42D06F9000
00000743D07800
00001E0B001E00
0000381D000B00
0000B01D000740
0002D01D000740
0007800D000B00
001E000B001E00
003C0002D07800
00B400006F9000
ENDCHAR
STARTCHAR ampersand
ENCODING 38
SWIDTH 926 0
DWIDTH 26 0
BBX 22 19 2 0
BITMAP
001AFE400000
00BFFFF40000
02F501B80000
03C0003C0000
038000380000
02C001E00000
00E01B400000
0079F8000000
002F80000000
01FB80000000
0B41F40002C0
2C007D000380
74000B800740
B00001F40B00
B000007D1D00
B800000BB800
2F900057F400
0BFFFFFE6E00
006FFE9007D0
ENDCHAR
STARTCHAR quotesingle
ENCODING 39
SWIDTH 140 0
DWIDTH 4 0
BBX 2 6 1 13
BITMAP
F0
F0
E0
E0
A0
A0
ENDCHAR
STARTCHAR parenleft
ENCODING 40
SWIDTH 420 0
DWIDTH 12 0
BBX 7 23 2 -2
BITMAP
0024
00B8
02E0
0780
0F00
1D00
3C00
7800
7400
B400
B000
B000
B000
B400
7400
7800
3C00
1D00
0F00
0780
02E0
00B8
0024
ENDCHAR
STARTCHAR parenright
ENCODING 41
SWIDTH 420 0
DWIDTH 12 0
BBX 7 23 3 -2
BITMAP
9000
B800
2D00
0F40
0780
02D0
01E0
00F0
00B4
0074
0074
0078
0074
0074
00B4
00F0
01E0
02D0
0780
0F40
2D00
B800
A000
ENDCHAR
STARTCHAR asterisk
ENCODING 42
SWIDTH 503 0
DWIDTH 14 0
BBX 10 11 2 8
BITMAP
00A000
00A000
90A060
B8A2E0
1BFE40
02F800
1BFE40
B8A2E0
90A060
00A000
00A000
ENDCHAR
STARTCHAR plus
ENCODING 43
SWIDTH 634 0
DWIDTH 18 0
BBX 14 14 2 3
BITMAP
000E0000
000E0000
000E0000
000E0000
000E0000
000E0000
BFFFFFD0
BFFFFFD0
000E0000
000E0000
000E0000
000E0000
000E0000
000E0000
ENDCHAR
STARTCHAR comma
ENCODING 44
SWIDTH 185 0
DWIDTH 5 0
BBX 4 6 0 -3
BITMAP
1F
1E
2D
3C
38
74
ENDCHAR
STARTCHAR hyphen
ENCODING 45
SWIDTH 540 0
DWIDTH 15 0
BBX 11 2 2 9
BITMAP
BFFFFC
BFFFFC
ENDCHAR
STARTCHAR period
ENCODING 46
SWIDTH 185 0
DWIDTH 5 0
BBX 3 3 1 0
BITMAP
B8
B8
B8
ENDCHAR
STARTCHAR slash
ENCODING 47
SWIDTH 500 0
DWIDTH 14 0
BBX 12 21 1 -1
BITMAP
00001D
000038
000074
0000B0
0001D0
0002C0
000380
000700
000E00
001D00
002800
007400
00B000
00D000
02C000
038000
074000
0E0000
1D0000
2C0000
740000
ENDCHAR
STARTCHAR zero
ENCODING 48
SWIDTH 833 0
DWIDTH 23 0
BBX 21 19 1 0
BITMAP
0002BFA40000
002FFFFF4000
01FE405BE000
07E00001F800
0F4000007D00
1E0000001E00
3C0000000B00
380000000740
780000000780
740000000380
780000000780
380000000740
3C0000000B00
1E0000001E00
0F4000003D00
07E00001F800
01FE405BE000
002FFFFF4000
0002BFE40000
ENDCHAR
STARTCHAR one
ENCODING 49
SWIDTH 339 0
DWIDTH 10 0
BBX 7 19 0 0
BITMAP
1AF4
FFF4
E5B4
00B4
00B4
00B4
00B4
00B4
00B4
00B4
00B4
00B4
00B4
00B4
00B4
00B4
00B4
00B4
00B4
ENDCHAR
STARTCHAR two
ENCODING 50
SWIDTH 728 0
DWIDTH 20 0
BBX 18 19 1 0
BITMAP
01AFFA4000
2FFFFFF800
BE5005BE00
9000000B80
00000003C0
00000002D0
00000001D0
00000002C0
0000000740
0000001E00
000000B800
000006D000
00002E4000
0001F40000
001B800000
01B8000000
1B90000000
BFFFFFFFE0
FFFFFFFFE0
ENDCHAR
STARTCHAR three
ENCODING 51
SWIDTH 726 0
DWIDTH 20 0
BBX 18 19 1 0
BITMAP
16BFFA4000
BFFFFFF800
694005BE00
0000000B40
0000000780
0000000380
0000000B00
000005BD00
001FFF9000
001FFF9000
000015BE00
0000000780
00000002D0
00000001D0
00000002D0
0000000B80
A54005BF00
FFFFFFF800
1AFFFA4000
ENDCHAR
STARTCHAR four
ENCODING 52
SWIDTH 769 0
DWIDTH 22 0
BBX 21 19 0 0
BITMAP
000000BF0000
000002EF0000
00000B8B0000
00002E0B0000
0000B80B0000
0002E00B0000
000B800B0000
002E000B0000
00B8000B0000
02E0000B0000
0B80000B0000
2E00000B0000
7FFFFFFFFF80
7FFFFFFFFF80
0000000B0000
0000000B0000
0000000B0000
0000000B0000
0000000B0000
ENDCHAR
STARTCHAR five
ENCODING 53
SWIDTH 738 0
DWIDTH 21 0
BBX 18 19 1 0
BITMAP
2FFFFFFF40
2FFFFFFF40
2C00000000
2C00000000
2C00000000
2C00000000
2C00000000
2EBFFE9000
2FFFFFFD00
0000016F80
00000007D0
00000000E0
00000000B0
00000000B0
00000001E0
00000007D0
6940016F80
7FFFFFFD00
16BFFE9000
ENDCHAR
STARTCHAR six
ENCODING 54
SWIDTH 772 0
DWIDTH 22 0
BBX 19 19 2 0
BITMAP
0006FFE900
00BFFFFF80
07F9001680
0F40000000
2D00000000
7800000000
B000000000
F01AFFA400
E1FFFFFE40
EBE5005FD0
FE000001F0
F4000000B4
F000000074
B400000074
78000000B4
2E000002E0
0BE4006FC0
01FFFFFE00
001AFF9000
ENDCHAR
STARTCHAR seven
ENCODING 55
SWIDTH 669 0
DWIDTH 19 0
BBX 18 19 0 0
BITMAP
FFFFFFFFF0
FFFFFFFFE0
00000002C0
0000000740
0000000E00
0000002D00
0000007800
000000F000
000002D000
0000078000
00000F0000
00002D0000
0000780000
0000B00000
0001E00000
0003C00000
000B400000
001E000000
003C000000
ENDCHAR
STARTCHAR eight
ENCODING 56
SWIDTH 793 0
DWIDTH 22 0
BBX 20 19 1 0
BITMAP
001AFFE400
01FFFFFF40
07E5001BE0
0B400000F0
0E00000074
0F000000B0
07900002D0
01FE416F40
001FFFF400
001BFFF900
02FA416FD0
1F400001F8
3C0000002D
740000000E
740000001E
7D0000007D
2FE40016F8
07FFFFFFD0
006BFFE900
ENDCHAR
STARTCHAR nine
ENCODING 57
SWIDTH 776 0
DWIDTH 22 0
BBX 19 19 1 0
BITMAP
006BFE9000
06FFFFF900
1F94016F40
3D000007D0
74000001F0
B0000000B4
B000000038
B400000078
3D000006FC
1F94016F7C
07FFFFF938
006BFE9038
0000000074
00000000F0
00000002E0
0000000B80
0A5001BE00
0FFFFFF800
05AFFA4000
ENDCHAR
STARTCHAR colon
ENCODING 58
SWIDTH 245 0
DWIDTH 7 0
BBX 3 13 2 0
BITMAP
B8
B8
B8
00
00
00
00
00
00
00
B8
B8
B8
ENDCHAR
STARTCHAR semicolon
ENCODING 59
SWIDTH 234 0
DWIDTH 7 0
BBX 4 16 1 -3
BITMAP
2E
2E
2E
00
00
00
00
00
00
00
2D
3C
3C
78
74
B0
ENDCHAR
STARTCHAR less
ENCODING 60
SWIDTH 634 0
DWIDTH 18 0
BBX 14 13 2 3
BITMAP
00000090
00001BD0
0001BE40
001FE400
02F90000
2F800000
F8000000
2F800000
02F90000
001FE400
0001BE40
00001BD0
00000090
ENDCHAR
STARTCHAR equal
ENCODING 61
SWIDTH 634 0
DWIDTH 18 0
BBX 14 7 2 6
BITMAP
BFFFFFD0
BFFFFFD0
00000000
00000000
00000000
BFFFFFD0
BFFFFFD0
ENDCHAR
STARTCHAR greater
ENCODING 62
SWIDTH 634 0
DWIDTH 18 0
BBX 14 13 2 3
BITMAP
90000000
BE000000
1FE40000
01BE4000
0007F400
00006F80
000002E0
00006F80
0007F400
01BE4000
1FE40000
BE000000
90000000
ENDCHAR
STARTCHAR question
ENCODING 63
SWIDTH 568 0
DWIDTH 16 0
BBX 13 19 1 0
BITMAP
1AFF9000
7FFFFD00
65006F40
00000B80
000003C0
000003C0
00000780
00001F00
0001B800
01AF9000
02E40000
02C00000
02C00000
00000000
00000000
00000000
02D00000
02D00000
02D00000
ENDCHAR
STARTCHAR at
ENCODING 64
SWIDTH 1016 0
DWIDTH 28 0
BBX 25 20 2 0
BITMAP
00006BFE900000
000BFFFFFE0000
007F94016FD000
02F8000002F400
0BD00000007C00
1F001BF9E01E00
3D00B907E00F00
7801D001D00B40
B4038001D00740
B0074002C00740
F00B4002C00B00
B00B4003800E00
B4078007802C00
7802D02ED1B400
3D006FA0BF8000
1F400000000000
0BD00000000000
02FE50016D0000
006FFFFFFD0000
0001AFFE900000
ENDCHAR
STARTCHAR A
ENCODING 65
SWIDTH 812 0
DWIDTH 23 0
BBX 22 19 0 0
BITMAP
00000F800000
00001FD00000
00003DE00000
000074B40000
0000F0380000
0001D02D0000
0003800E0000
000740074000
000E00038000
002D0001D000
00380000E000
00B000007400
00FFFFFFFC00
02FFFFFFFD00
038000000F00
0B4000000740
0E00000003C0
2D00000001D0
7800000000F0
ENDCHAR
STARTCHAR B
ENCODING 66
SWIDTH 836 0
DWIDTH 23 0
BBX 19 19 3 0
BITMAP
FFFFFFE400
FFFFFFFF40
F000001B80
F0000002D0
F0000001D0
F0000001D0
F0000002C0
F000001B80
FFFFFFF900
FFFFFFFE40
F0000017E0
F0000000B4
F000000078
F000000038
F000000038
F0000000B8
F0000006F0
FFFFFFFFD0
FFFFFFF900
ENDCHAR
STARTCHAR C
ENCODING 67
SWIDTH 869 0
DWIDTH 24 0
BBX 21 19 2 0
BITMAP
0005BFFA4000
007FFFFFF900
02FE4001AF40
0F9000000240
2E0000000000
780000000000
B40000000000
F00000000000
E00000000000
E00000000000
E00000000000
F00000000000
B40000000000
780000000000
2E0000000000
0F9000000240
02FE4001AF40
007FFFFFF900
0005BFFA4000
ENDCHAR
STARTCHAR D
ENCODING 68
SWIDTH 910 0
DWIDTH 25 0
BBX 21 19 3 0
BITMAP
FFFFFFA40000
FFFFFFFF8000
F000005BF000
F0000000BC00
F00000002E00
F00000000F00
F00000000B40
F00000000780
F00000000380
F00000000380
F00000000780
F00000000780
F00000000B40
F00000000F00
F00000002E00
F0000000BC00
F000005BF400
FFFFFFFF8000
FFFFFFA40000
ENDCHAR
STARTCHAR E
ENCODING 69
SWIDTH 754 0
DWIDTH 21 0
BBX 16 19 3 0
BITMAP
FFFFFFFE
FFFFFFFE
F0000000
F0000000
F0000000
F0000000
F0000000
F0000000
FFFFFFFC
FFFFFFFC
F0000000
F0000000
F0000000
F0000000
F0000000
F0000000
F0000000
FFFFFFFF
FFFFFFFF
ENDCHAR
STARTCHAR F
ENCODING 70
SWIDTH 687 0
DWIDTH 19 0
BBX 15 19 3 0
BITMAP
FFFFFFFC
FFFFFFFC
F0000000
F0000000
F0000000
F0000000
F0000000
F0000000
FFFFFFF4
FFFFFFF4
F0000000
F0000000
F0000000
F0000000
F0000000
F0000000
F0000000
F0000000
F0000000
ENDCHAR
STARTCHAR G
ENCODING 71
SWIDTH 910 0
DWIDTH 25 0
BBX 22 19 2 0
BITMAP
0001AFFE9000
006FFFFFFE00
02FE50016F80
0BD000000180
2E0000000000
7C0000000000
B40000000000
F00000000000
E00000000000
E00000000000
E00000FFFFD0
F00000FFFFD0
B400000002D0
7C00000002D0
2E00000002D0
0BD0000002D0
02FE500056D0
006FFFFFFFC0
0001AFFFA400
ENDCHAR
STARTCHAR H
ENCODING 72
SWIDTH 949 0
DWIDTH 27 0
BBX 21 19 3 0
BITMAP
F00000000740
F00000000740
F00000000740
F00000000740
F00000000740
F00000000740
F00000000740
F00000000740
FFFFFFFFFF40
FFFFFFFFFF40
F00000000740
F00000000740
F00000000740
F00000000740
F00000000740
F00000000740
F00000000740
F00000000740
F00000000740
ENDCHAR
STARTCHAR I
ENCODING 73
SWIDTH 287 0
DWIDTH 8 0
BBX 2 19 3 0
BITMAP
F0
F0
F0
F0
F0
F0
F0
F0
F0
F0
F0
F0
F0
F0
F0
F0
F0
F0
F0
ENDCHAR
STARTCHAR J
ENCODING 74
SWIDTH 590 0
DWIDTH 17 0
BBX 14 19 0 0
BITMAP
000001D0
000001D0
000001D0
000001D0
000001D0
000001D0
000001D0
000001D0
000001D0
000001D0
000001D0
000001D0
000001D0
000001D0
000002D0
000007C0
E5006F40
FFFFFD00
1AFF9000
ENDCHAR
STARTCHAR K
ENCODING 75
SWIDTH 806 0
DWIDTH 23 0
BBX 19 19 3 0
BITMAP
F0000002D0
F000001E40
F00001B400
F0000B9000
F0007D0000
F002E00000
F01F400000
F0B8000000
F7D0000000
FBD0000000
F1F8000000
F02E400000
F007D00000
F000B90000
F0001F4000
F00006E000
F00000BD00
F000001B80
F0000002F4
ENDCHAR
STARTCHAR L
ENCODING 76
SWIDTH 701 0
DWIDTH 20 0
BBX 16 19 3 0
BITMAP
F0000000
F0000000
F0000000
F0000000
F0000000
F0000000
F0000000
F0000000
F0000000
F0000000
F0000000
F0000000
F0000000
F0000000
F0000000
F0000000
F0000000
FFFFFFFE
FFFFFFFE
ENDCHAR
STARTCHAR M
ENCODING 77
SWIDTH 1139 0
DWIDTH 32 0
BBX 26 19 3 0
BITMAP
F40000000001E0
FC0000000003E0
FE000000000BE0
FB400000001EE0
F7C00000003CE0
F2E0000000B4E0
F0F4000001E0E0
F078000003D0E0
F02E00000B80E0
F00F40001F00E0
F00780002D00E0
F002D0007800E0
F000F000F000E0
F0007802D000E0
F0002D078000E0
F0000F0F0000E0
F00007AD0000E0
F00002F80000E0
F00000F00000E0
ENDCHAR
STARTCHAR N
ENCODING 78
SWIDTH 936 0
DWIDTH 26 0
BBX 20 19 3 0
BITMAP
F80000000B
FE0000000B
FB4000000B
F2D000000B
F0F400000B
F03D00000B
F00F40000B
F003D0000B
F000F4000B
F0003D000B
F0001F400B
F00007D00B
F00001F40B
F000007D0B
F000001F4B
F0000007DB
F0000001FB
F00000007F
F00000001F
ENDCHAR
STARTCHAR O
ENCODING 79
SWIDTH 983 0
DWIDTH 28 0
BBX 24 19 2 0
BITMAP
0006AFFA4000
007FFFFFF800
02F94005BF40
0F90000007E0
2E00000000F4
78000000007C
B4000000002D
F0000000001D
E0000000000E
E0000000000E
E0000000000E
F0000000001D
B4000000002D
78000000007C
2E00000000F4
0F90000007E0
02F94005BF40
007FFFFFF900
0006BFFA4000
ENDCHAR
STARTCHAR P
ENCODING 80
SWIDTH 818 0
DWIDTH 23 0
BBX 19 19 3 0
BITMAP
FFFFFFE400
FFFFFFFF40
F000001BD0
F0000000F0
F0000000B4
F000000074
F000000074
F0000000B4
F0000001F0
F000001BD0
FFFFFFFF40
FFFFFFE400
F000000000
F000000000
F000000000
F000000000
F000000000
F000000000
F000000000
ENDCHAR
STARTCHAR Q
ENCODING 81
SWIDTH 983 0
DWIDTH 28 0
BBX 26 19 2 0
BITMAP
0006AFFA400000
007FFFFFF80000
02F94005BF4000
0F90000007E000
2E00000000F400
78000000007C00
B4000000002D00
F0000000001D00
E0000000000E00
E0000000000E00
E0000000001E00
F0000000001E00
B4000000002D00
78000019007C00
2E00000B90F400
0F900001FBE000
02F94005BFD500
007FFFFFFAFFD0
0006BFFA401680
ENDCHAR
STARTCHAR R
ENCODING 82
SWIDTH 833 0
DWIDTH 23 0
BBX 19 19 3 0
BITMAP
FFFFFFA400
FFFFFFFE00
F000006F80
F0000002D0
F0000001D0
F0000001E0
F0000001D0
F0000002D0
F000005F80
FFFFFFFE00
FFFFFFE400
F00001D000
F00000B400
F000003C00
F000001E00
F000000780
F0000002D0
F0000000F4
F00000007C
ENDCHAR
STARTCHAR S
ENCODING 83
SWIDTH 787 0
DWIDTH 22 0
BBX 18 19 2 0
BITMAP
006FFFA500
0BFFFFFF40
3F50005A40
B800000000
B000000000
B400000000
7D00000000
1FE4000000
02FFE40000
001BFFD000
00001BFE00
0000001FC0
00000002E0
00000000F0
00000000F0
00000002E0
A540006FC0
BFFFFFFE00
16BFFE9000
ENDCHAR
STARTCHAR T
ENCODING 84
SWIDTH 708 0
DWIDTH 20 0
BBX 20 19 0 0
BITMAP
7FFFFFFFFD
7FFFFFFFFD
0000380000
0000380000
0000380000
0000380000
0000380000
0000380000
0000380000
0000380000
0000380000
0000380000
0000380000
0000380000
0000380000
0000380000
0000380000
0000380000
0000380000
ENDCHAR
STARTCHAR U
ENCODING 85
SWIDTH 891 0
DWIDTH 25 0
BBX 19 19 3 0
BITMAP
E00000002C
E00000002C
E00000002C
E00000002C
E00000002C
E00000002C
E00000002C
E00000002C
E00000002C
E00000002C
E00000002C
E00000002C
E00000002C
F00000003C
B400000078
7D000002F4
2FE4006FD0
07FFFFFF40
006BFFA400
ENDCHAR
STARTCHAR V
ENCODING 86
SWIDTH 817 0
DWIDTH 23 0
BBX 21 19 1 0
BITMAP
F000000003C0
B40000000B40
3C0000000F00
2D0000002D00
0F0000003C00
0B400000B400
03C00000F000
02D00002D000
00F00003C000
00B4000B4000
003C000F0000
002D002D0000
000F003C0000
000B40B40000
0003C0F00000
0002D2D00000
0000F3C00000
0000BF400000
00003F000000
ENDCHAR
STARTCHAR W
ENCODING 87
SWIDTH 1266 0
DWIDTH 35 0
BBX 34 19 1 0
BITMAP
B0000002F0000002D0
78000003F400000380
3C000007B800000740
2D00000B2D00000F00
1E00000E1E00001E00
0B00002D0F00002D00
0740003C0740003800
03C000780380007400
02D000B002C000F000
01E000E001D001E000
00B001D000F002D000
007402C000B403C000
003C03800078074000
002D0B40002C0B0000
001E0F00001D1E0000
000B1D00000E2D0000
00076C00000B7C0000
0003F8000007F40000
0002F4000003F00000
ENDCHAR
STARTCHAR X
ENCODING 88
SWIDTH 821 0
DWIDTH 23 0
BBX 21 19 1 0
BITMAP
2D0000001E00
0B4000007C00
03D00001F000
00F00003C000
003C000F4000
001E002D0000
000780B40000
0001E2D00000
00007F400000
00002F000000
0000BF800000
0002E2E00000
000B80B80000
002E002E0000
0078000B8000
01E00002D000
07800000B400
1E0000002D00
780000000B40
ENDCHAR
STARTCHAR Y
ENCODING 89
SWIDTH 763 0
DWIDTH 21 0
BBX 19 19 1 0
BITMAP
B40000003C
2D000000F4
0F400002D0
07C0000B80
01E0001E00
00B8007C00
002D00F400
000F43D000
0007DB8000
0001FE0000
0000BC0000
0000780000
0000780000
0000780000
0000780000
0000780000
0000780000
0000780000
0000780000
ENDCHAR
STARTCHAR Z
ENCODING 90
SWIDTH 728 0
DWIDTH 20 0
BBX 17 19 2 0
BITMAP
BFFFFFFF40
BFFFFFFF00
0000002C00
000000B400
000002D000
00000B4000
00001E0000
0000780000
0001E00000
0003800000
000F000000
002D000000
00B4000000
02D0000000
0B40000000
1E00000000
7800000000
FFFFFFFF80
FFFFFFFF80
ENDCHAR
STARTCHAR bracketleft
ENCODING 91
SWIDTH 409 0
DWIDTH 11 0
BBX 7 22 3 -2
BITMAP
7FFC
7FFC
7400
7400
7400
7400
7400
7400
7400
7400
7400
7400
7400
7400
7400
7400
7400
7400
7400
7400
7FFC
7FFC
ENDCHAR
STARTCHAR backslash
ENCODING 92
SWIDTH 500 0
DWIDTH 14 0
BBX 12 21 1 -1
BITMAP
740000
2C0000
1D0000
0E0000
074000
038000
02C000
00D000
00B000
007400
002800
001D00
000E00
000700
000380
0002C0
0001D0
0000B0
000074
000038
00001D
ENDCHAR
STARTCHAR bracketright
ENCODING 93
SWIDTH 409 0
DWIDTH 11 0
BBX 7 22 1 -2
BITMAP
BFFC
BFFC
002C
002C
002C
002C
002C
002C
002C
002C
002C
002C
002C
002C
002C
002C
002C
002C
002C
002C
BFFC
BFFC
ENDCHAR
STARTCHAR asciicircum
ENCODING 94
SWIDTH 459 0
DWIDTH 13 0
BBX 11 8 1 11
BITMAP
00B800
01ED00
038E00
0B4740
0E02C0
2C01E0
7800B4
F00038
ENDCHAR
STARTCHAR underscore
ENCODING 95
SWIDTH 500 0
DWIDTH 14 0
BBX 14 2 0 -4
BITMAP
FFFFFFF0
FFFFFFF0
ENDCHAR
STARTCHAR grave
ENCODING 96
SWIDTH 527 0
DWIDTH 15 0
BBX 7 4 2 15
BITMAP
2400
7F40
06F4
0028
ENDCHAR
STARTCHAR a
ENCODING 97
SWIDTH 888 0
DWIDTH 25 0
BBX 21 19 1 0
BITMAP
016AFFFA4000
0BFFFFFFE400
06940006BD00
000000001F00
000000000780
000000000380
0000000002C0
0000016ABFC0
0006BFFFFFC0
01BFFA9502C0
0BF9000002C0
2F40000002C0
3C00000002C0
7800000002C0
7800000003C0
3D0000006FC0
1F94005BFFC0
07FFFFFF92C0
006FFE9402C0
ENDCHAR
STARTCHAR b
ENCODING 98
SWIDTH 836 0
DWIDTH 23 0
BBX 19 19 3 0
BITMAP
FFFFFFE400
FFFFFFFF40
F000001B80
F0000002D0
F0000001D0
F0000001D0
F0000002C0
F000001B80
FFFFFFF900
FFFFFFFE40
F0000017E0
F0000000B4
F000000078
F000000038
F000000038
F0000000B8
F0000006F0
FFFFFFFFD0
FFFFFFF900
ENDCHAR
STARTCHAR c
ENCODING 99
SWIDTH 869 0
DWIDTH 24 0
BBX 21 19 2 0
BITMAP
0005BFFA4000
007FFFFFF900
02FE4001AF40
0F9000000240
2E0000000000
780000000000
B40000000000
F00000000000
E00000000000
E00000000000
E00000000000
F00000000000
B40000000000
780000000000
2E0000000000
0F9000000240
02FE4001AF40
007FFFFFF900
0005BFFA4000
ENDCHAR
STARTCHAR d
ENCODING 100
SWIDTH 910 0
DWIDTH 25 0
BBX 21 19 3 0
BITMAP
FFFFFFA40000
FFFFFFFF8000
F000005BF000
F0000000BC00
F00000002E00
F00000000F00
F00000000B40
F00000000780
F00000000380
F00000000380
F00000000780
F00000000780
F00000000B40
F00000000F00
F00000002E00
F0000000BC00
F000005BF400
FFFFFFFF8000
FFFFFFA40000
ENDCHAR
STARTCHAR e
ENCODING 101
SWIDTH 910 0
DWIDTH 25 0
BBX 22 19 2 0
BITMAP
0006BFE90000
007FFFFFD000
02F94016F800
0B8000002E00
2D0000000B40
7800000002C0
B000000001D0
E000000000D0
FFFFFFFFFFE0
FFFFFFFFFFE0
E00000000000
F00000000000
B40000000000
7C0000000000
2E0000000000
0BD000000000
02FE50015A00
006FFFFFFF00
0005BFFEA400
ENDCHAR
STARTCHAR f
ENCODING 102
SWIDTH 817 0
DWIDTH 23 0
BBX 19 19 3 0
BITMAP
006BFFFFF4
07FFFFFFF4
2F94000000
7D00000000
B400000000
B000000000
F000000000
F000000000
F000000000
FFFFFFFFF0
FFFFFFFFF0
F000000000
F000000000
F000000000
F000000000
F000000000
F000000000
F000000000
F000000000
ENDCHAR
STARTCHAR g
ENCODING 103
SWIDTH 910 0
DWIDTH 25 0
BBX 22 19 2 0
BITMAP
0001AFFE9000
006FFFFFFE00
02FE50016F80
0BD000000180
2E0000000000
7C0000000000
B40000000000
F00000000000
E00000000000
E00000000000
E00000FFFFD0
F00000FFFFD0
B400000002D0
7C00000002D0
2E00000002D0
0BD0000002D0
02FE500056D0
006FFFFFFFC0
0001AFFFA400
ENDCHAR
STARTCHAR h
ENCODING 104
SWIDTH 949 0
DWIDTH 27 0
BBX 21 19 3 0
BITMAP
F00000000740
F00000000740
F00000000740
F00000000740
F00000000740
F00000000740
F00000000740
F00000000740
FFFFFFFFFF40
FFFFFFFFFF40
F00000000740
F00000000740
F00000000740
F00000000740
F00000000740
F00000000740
F00000000740
F00000000740
F00000000740
ENDCHAR
STARTCHAR i
ENCODING 105
SWIDTH 287 0
DWIDTH 8 0
BBX 2 19 3 0
BITMAP
F0
F0
F0
F0
F0
F0
F0
F0
F0
F0
F0
F0
F0
F0
F0
F0
F0
F0
F0
ENDCHAR
STARTCHAR j
ENCODING 106
SWIDTH 590 0
DWIDTH 17 0
BBX 14 19 0 0
BITMAP
000001D0
000001D0
000001D0
000001D0
000001D0
000001D0
000001D0
000001D0
000001D0
000001D0
000001D0
000001D0
000001D0
000001D0
000002D0
000007C0
E5006F40
FFFFFD00
1AFF9000
ENDCHAR
STARTCHAR k
ENCODING 107
SWIDTH 867 0
DWIDTH 24 0
BBX 20 19 3 0
BITMAP
F000000074
F0000000B0
F0000001E0
F0000002C0
F000000B40
F000006E00
F00006F400
F005BF8000
FFFFE40000
FFFFFE4000
F0016FE400
F00001BE00
F000001F80
F0000002E0
F0000000F4
F000000078
F00000003C
F00000001D
F00000001D
ENDCHAR
STARTCHAR l
ENCODING 108
SWIDTH 709 0
DWIDTH 20 0
BBX 17 19 3 0
BITMAP
F000000000
F000000000
F000000000
F000000000
F000000000
F000000000
F000000000
F000000000
F000000000
F000000000
F000000000
F000000000
F000000000
B000000000
B000000000
7800000000
3E50000000
1FFFFFFF80
01BFFFFF80
ENDCHAR
STARTCHAR m
ENCODING 109
SWIDTH 1246 0
DWIDTH 35 0
BBX 29 19 3 0
BITMAP
F00BF90001BF9000
F0BFFFD02FFFF800
F7F406F1FE407E00
FF40007FE0000F40
FD00003F40000780
F000002D00000380
F000001D00000380
F000001D00000380
F000001D00000380
F000001D00000380
F000001D00000380
F000001D00000380
F000001D00000380
F000001D00000380
F000001D00000380
F000001D00000380
F000001D00000380
F000001D00000380
F000001D00000380
ENDCHAR
STARTCHAR n
ENCODING 110
SWIDTH 933 0
DWIDTH 26 0
BBX 20 19 3 0
BITMAP
F0006FFE40
F01BFFFFE0
F1BF9005F8
FBE400002D
FE4000000E
F40000000B
F00000000B
F00000000B
F00000000B
F00000000B
F00000000B
F00000000B
F00000000B
F00000000B
F00000000B
F00000000B
F00000000B
F00000000B
F00000000B
ENDCHAR
STARTCHAR o
ENCODING 111
SWIDTH 983 0
DWIDTH 28 0
BBX 24 19 2 0
BITMAP
0006AFFA4000
007FFFFFF800
02F94005BF40
0F90000007E0
2E00000000F4
78000000007C
B4000000002D
F0000000001D
E0000000000E
E0000000000E
E0000000000E
F0000000001D
B4000000002D
78000000007C
2E00000000F4
0F90000007E0
02F94005BF40
007FFFFFF900
0006BFFA4000
ENDCHAR
STARTCHAR p
ENCODING 112
SWIDTH 818 0
DWIDTH 23 0
BBX 19 19 3 0
BITMAP
FFFFFFE400
FFFFFFFF40
F000001BD0
F0000000F0
F0000000B4
F000000074
F000000074
F0000000B4
F0000001F0
F000001BD0
FFFFFFFF40
FFFFFFE400
F000000000
F000000000
F000000000
F000000000
F000000000
F000000000
F000000000
ENDCHAR
STARTCHAR q
ENCODING 113
SWIDTH 983 0
DWIDTH 28 0
BBX 25 19 2 0
BITMAP
0006AFFA400000
007FFFFFF80000
02F94005BF4000
0F90000007E000
2E00000000F400
78000000007C00
B4000000002D00
F0000000001D00
E0000000000E00
E0000000000E00
E0000000000E00
F0000000001E00
B4000000002D00
78000000007C00
2E00000000F400
0F90000007E000
02F94005BFD400
007FFFFFFBFFC0
0006BFFA401A80
ENDCHAR
STARTCHAR r
ENCODING 114
SWIDTH 609 0
DWIDTH 17 0
BBX 14 19 3 0
BITMAP
F001BFE0
F01FFFF0
F1BE4010
F7E00000
FF400000
F8000000
F0000000
F0000000
F0000000
F0000000
F0000000
F0000000
F0000000
F0000000
F0000000
F0000000
F0000000
F0000000
F0000000
ENDCHAR
STARTCHAR s
ENCODING 115
SWIDTH 787 0
DWIDTH 22 0
BBX 18 19 2 0
BITMAP
006FFFA500
0BFFFFFF40
3F50005A40
B800000000
B000000000
B400000000
7D00000000
1FE4000000
02FFE40000
001BFFD000
00001BFE00
0000001FC0
00000002E0
00000000F0
00000000F0
00000002E0
A540006FC0
BFFFFFFE00
16BFFE9000
ENDCHAR
STARTCHAR t
ENCODING 116
SWIDTH 708 0
DWIDTH 20 0
BBX 20 19 0 0
BITMAP
7FFFFFFFFD
7FFFFFFFFD
0000380000
0000380000
0000380000
0000380000
0000380000
0000380000
0000380000
0000380000
0000380000
0000380000
0000380000
0000380000
0000380000
0000380000
0000380000
0000380000
0000380000
ENDCHAR
STARTCHAR u
ENCODING 117
SWIDTH 931 0
DWIDTH 26 0
BBX 20 19 3 0
BITMAP
E00000000B
E00000000B
E00000000B
E00000000B
E00000000B
E00000000B
E00000000B
E00000000B
E00000000B
E00000000B
E00000000B
E00000000B
F00000000B
F00000001F
B4000001BF
7800001BEF
2F5006FE4B
0BFFFFE40B
01AFF9000B
ENDCHAR
STARTCHAR v
ENCODING 118
SWIDTH 817 0
DWIDTH 23 0
BBX 21 19 1 0
BITMAP
F000000003C0
B40000000B40
3C0000000F00
2D0000002D00
0F0000003C00
0B400000B400
03C00000F000
02D00002D000
00F00003C000
00B4000B4000
003C000F0000
002D002D0000
000F003C0000
000B40B40000
0003C0F00000
0002D2D00000
0000F3C00000
0000BF400000
00003F000000
ENDCHAR
STARTCHAR w
ENCODING 119
SWIDTH 1266 0
DWIDTH 35 0
BBX 34 19 1 0
BITMAP
B0000002F0000002D0
78000003F400000380
3C000007B800000740
2D00000B2D00000F00
1E00000E1E00001E00
0B00002D0F00002D00
0740003C0740003800
03C000780380007400
02D000B002C000F000
01E000E001D001E000
00B001D000F002D000
007402C000B403C000
003C03800078074000
002D0B40002C0B0000
001E0F00001D1E0000
000B1D00000E2D0000
00076C00000B7C0000
0003F8000007F40000
0002F4000003F00000
ENDCHAR
STARTCHAR x
ENCODING 120
SWIDTH 821 0
DWIDTH 23 0
BBX 21 19 1 0
BITMAP
2D0000001E00
0B4000007C00
03D00001F000
00F00003C000
003C000F4000
001E002D0000
000780B40000
0001E2D00000
00007F400000
00002F000000
0000BF800000
0002E2E00000
000B80B80000
002E002E0000
0078000B8000
01E00002D000
07800000B400
1E0000002D00
780000000B40
ENDCHAR
STARTCHAR y
ENCODING 121
SWIDTH 911 0
DWIDTH 26 0
BBX 21 19 2 0
BITMAP
740000000740
740000000740
740000000740
740000000740
740000000740
740000000740
780000000F40
380000002F40
2D000000BF40
1F400007E740
0BE5016F8740
01FFFFF90740
001BFE800B40
000000000F00
000000002E00
00000001BC00
6950006BF400
7FFFFFFF8000
16BFFFA40000
ENDCHAR
STARTCHAR z
ENCODING 122
SWIDTH 728 0
DWIDTH 20 0
BBX 17 19 2 0
BITMAP
BFFFFFFF40
BFFFFFFF00
0000002C00
000000B400
000002D000
00000B4000
00001E0000
0000780000
0001E00000
0003800000
000F000000
002D000000
00B4000000
02D0000000
0B40000000
1E00000000
7800000000
FFFFFFFF80
FFFFFFFF80
ENDCHAR
STARTCHAR braceleft
ENCODING 123
SWIDTH 386 0
DWIDTH 11 0
BBX 10 22 0 -2
BITMAP
001BD0
007FD0
00B400
00E000
00E000
00E000
00E000
00E000
01D000
028000
7E0000
068000
01D000
00E000
00E000
00E000
00E000
00E000
00E000
00B400
007FD0
001BD0
ENDCHAR
STARTCHAR bar
ENCODING 124
SWIDTH 259 0
DWIDTH 7 0
BBX 3 28 2 -7
BITMAP
74
74
74
74
74
74
74
74
74
74
74
74
74
74
74
74
74
74
74
74
74
74
74
74
74
74
74
74
ENDCHAR
STARTCHAR braceright
ENCODING 125
SWIDTH 386 0
DWIDTH 11 0
BBX 9 22 1 -2
BITMAP
BE4000
BFD000
01E000
00E000
00F000
00F000
00F000
00B000
00B000
003800
000FC0
003800
007000
00B000
00F000
00F000
00F000
00E000
00E000
02E000
BFC000
BE4000
ENDCHAR
STARTCHAR asciitilde
ENCODING 126
SWIDTH 634 0
DWIDTH 18 0
BBX 14 3 2 8
BITMAP
6FE94060
FFFFFFE0
9016BF80
ENDCHAR
STARTCHAR nonbreakingspace
ENCODING 160
SWIDTH 375 0
DWIDTH 11 0
BBX 1 1 0 0
BITMAP
00
ENDCHAR
STARTCHAR exclamdown
ENCODING 161
SWIDTH 274 0
DWIDTH 8 0
BBX 3 19 2 0
BITMAP
7C
7C
7C
00
00
24
24
28
38
38
38
38
38
38
38
7C
7C
7C
7C
ENDCHAR
STARTCHAR cent
ENCODING 162
SWIDTH 736 0
DWIDTH 21 0
BBX 19 22 1 -2
BITMAP
00001C0000
00001C0000
0006BFE900
00BFFFFF90
03F95C16F4
0F801C0024
2E001C0000
3C001C0000
78001C0000
B4001C0000
B4001C0000
B4001C0000
78001C0000
3C001C0000
2E001C0000
0F801C0024
03F95C16F4
00BFFFFF90
0006BFE900
00001C0000
00001C0000
00001C0000
ENDCHAR
STARTCHAR sterling
ENCODING 163
SWIDTH 792 0
DWIDTH 22 0
BBX 20 19 1 0
BITMAP
00006BFE90
0002FFFFF4
000BD40164
001E000000
003C000000
0038000000
0078000000
0074000000
0074000000
7FFFFFFD00
7FFFFFFD00
0074000000
0074000000
0074000000
0074000000
00E0000000
07FFE94019
7FFFFFFFFE
79005ABFE4
ENDCHAR
STARTCHAR currency
ENCODING 164
SWIDTH 560 0
DWIDTH 16 0
BBX 12 12 2 3
BITMAP
D0000A
B5BE6D
2FFFF4
1E41F0
380038
340028
340028
380038
1E41F4
2FFFF4
B5BE6D
D0000A
ENDCHAR
STARTCHAR yen
ENCODING 165
SWIDTH 811 0
DWIDTH 23 0
BBX 19 19 2 0
BITMAP
F000000078
3C000001E0
1E000003C0
0780000B40
02D0002D00
00B4007800
003C01E000
001E03C000
7FFF8BFFF4
7FFFEFFFF4
0001F80000
0000B40000
7FFFFFFFF4
7FFFFFFFF4
0000B40000
0000B40000
0000B40000
0000B40000
0000B40000
ENDCHAR
STARTCHAR brokenbar
ENCODING 166
SWIDTH 259 0
DWIDTH 7 0
BBX 3 25 2 -5
BITMAP
74
74
74
74
74
74
74
74
74
74
00
00
00
00
00
74
74
74
74
74
74
74
74
74
74
ENDCHAR
STARTCHAR section
ENCODING 167
SWIDTH 500 0
DWIDTH 14 0
BBX 12 19 1 0
BITMAP
01BF90
0BFFF0
1E4060
1D0000
0E0000
07E000
0BBE40
280BE0
7400B8
78002D
2E001D
0BD03C
01BEE0
000BD0
0000B0
000074
1901B4
2FFFE0
06FE40
ENDCHAR
STARTCHAR dieresis
ENCODING 168
SWIDTH 527 0
DWIDTH 15 0
BBX 8 2 3 16
BITMAP
780F
780F
ENDCHAR
STARTCHAR copyright
ENCODING 169
SWIDTH 770 0
DWIDTH 22 0
BBX 20 19 1 0
BITMAP
0006FE9000
007901B800
02D0000B40
07000001C0
1D02FE80A0
281E41E034
3438002028
707400001C
A0B000001C
A0B000000D
A0B000001C
707400001C
3438002028
281E41E034
1D02FE80A0
07000001C0
02D0000B40
007901B800
0006FE9000
ENDCHAR
STARTCHAR ordfeminine
ENCODING 170
SWIDTH 497 0
DWIDTH 14 0
BBX 12 13 1 6
BITMAP
16FF90
2501B8
00001D
00000D
01ABFD
2E540D
E0000D
D0001D
B405BD
1BFE5D
000000
000000
BFFFFD
ENDCHAR
STARTCHAR guillemotleft
ENCODING 171
SWIDTH 440 0
DWIDTH 12 0
BBX 10 11 1 4
BITMAP
018060
0781E0
0F03C0
2D0B40
B42E00
F02C00
B42E00
2D0B40
0F03C0
0781E0
018060
ENDCHAR
STARTCHAR logicalnot
ENCODING 172
SWIDTH 634 0
DWIDTH 18 0
BBX 14 6 2 7
BITMAP
BFFFFFD0
BFFFFFD0
000000D0
000000D0
000000D0
000000D0
ENDCHAR
STARTCHAR uni00AD
ENCODING 173
SWIDTH 540 0
DWIDTH 15 0
BBX 11 2 2 9
BITMAP
BFFFFC
BFFFFC
ENDCHAR
STARTCHAR registered
ENCODING 174
SWIDTH 600 0
DWIDTH 17 0
BBX 15 14 1 5
BITMAP
006FE400
02901E00
0A000280
287FD0D0
30707460
60703430
60707434
607FD034
60709030
30707060
287028D0
0A000280
02901E00
006FE400
ENDCHAR
STARTCHAR macron
ENCODING 175
SWIDTH 527 0
DWIDTH 15 0
BBX 8 2 3 16
BITMAP
7FFF
7FFF
ENDCHAR
STARTCHAR degree
ENCODING 176
SWIDTH 373 0
DWIDTH 10 0
BBX 7 7 2 12
BITMAP
1F80
B4B0
D034
D028
D034
B4B0
1F80
ENDCHAR
STARTCHAR plusminus
ENCODING 177
SWIDTH 634 0
DWIDTH 18 0
BBX 14 15 2 2
BITMAP
000E0000
000E0000
000E0000
000E0000
000E0000
BFFFFFD0
BFFFFFD0
000E0000
000E0000
000E0000
000E0000
000E0000
00000000
BFFFFFD0
BFFFFFD0
ENDCHAR
STARTCHAR twosuperior
ENCODING 178
SWIDTH 511 0
DWIDTH 14 0
BBX 12 12 1 7
BITMAP
1BFE80
F901B4
80001D
00000E
00001D
00003C
0001E0
000B80
007D00
06D000
2E0000
FFFFFE
ENDCHAR
STARTCHAR threesuperior
ENCODING 179
SWIDTH 512 0
DWIDTH 14 0
BBX 12 12 1 7
BITMAP
1BFE90
9401B4
00002C
00002C
0005F4
01FF80
0005B4
00001D
00000D
00001D
9401B8
6BFE90
ENDCHAR
STARTCHAR acute
ENCODING 180
SWIDTH 527 0
DWIDTH 15 0
BBX 6 4 6 15
BITMAP
0060
07E0
7E40
9000
ENDCHAR
STARTCHAR micro
ENCODING 181
SWIDTH 705 0
DWIDTH 20 0
BBX 16 19 1 -6
BITMAP
02C0000B
02C0000F
0380000E
0380001D
0740002D
0B00002C
0B00003C
0E000078
0E0000F8
1F4007F4
1FD06F74
2DFFF838
286F9038
38000000
74000000
74000000
B0000000
B0000000
E0000000
ENDCHAR
STARTCHAR paragraph
ENCODING 182
SWIDTH 585 0
DWIDTH 16 0
BBX 12 19 1 0
BITMAP
01BFFF
0BFF47
1FFF47
3FFF47
7FFF47
7FFF47
7FFF47
3FFF47
1FFF47
0BFF47
01BF47
000347
000347
000347
000347
000347
000347
000347
000347
ENDCHAR
STARTCHAR periodcentered
ENCODING 183
SWIDTH 185 0
DWIDTH 5 0
BBX 3 3 1 8
BITMAP
B8
B8
B8
ENDCHAR
STARTCHAR cedilla
ENCODING 184
SWIDTH 527 0
DWIDTH 15 0
BBX 7 5 4 -5
BITMAP
0700
0BE0
0074
9074
2FE0
ENDCHAR
STARTCHAR onesuperior
ENCODING 185
SWIDTH 261 0
DWIDTH 7 0
BBX 5 12 0 7
BITMAP
1B80
A680
0280
0280
0280
0280
0280
0280
0280
0280
0280
0280
ENDCHAR
STARTCHAR ordmasculine
ENCODING 186
SWIDTH 520 0
DWIDTH 15 0
BBX 13 13 1 6
BITMAP
02BF9000
1E406C00
74000B00
E0000340
D0000280
D0000280
E0000340
74000B00
2E406D00
06BF9000
00000000
00000000
7FFFFF00
ENDCHAR
STARTCHAR guillemotright
ENCODING 187
SWIDTH 440 0
DWIDTH 12 0
BBX 11 11 1 4
BITMAP
601800
B41E00
2D0B40
0F03C0
0780F0
02D0B4
0780F0
0F03C0
2D0B40
B41E00
601800
ENDCHAR
STARTCHAR onequarter
ENCODING 188
SWIDTH 857 0
DWIDTH 24 0
BBX 23 19 0 0
BITMAP
1BC000007800
66C00000E000
02C00002C000
02C0000B4000
02C0001E0000
02C000380000
02C000F00000
02C002D00000
02C007400000
02C01E001F00
000038007B00
0000B001DB00
0002D0074B00
0007401D0B00
001E00780B00
003801E00B00
00B002FFFFF8
02D000000B00
074000000B00
ENDCHAR
STARTCHAR onehalf
ENCODING 189
SWIDTH 937 0
DWIDTH 26 0
BBX 24 19 0 0
BITMAP
1BC000007800
66C00000E000
02C00002C000
02C0000B4000
02C0001E0000
02C000380000
02C000F00000
02C002D00000
02C007400000
02C01E01BFA4
00003806406D
0000B000000A
0002D000000B
00074000001D
001E00000078
0038000006D0
00B000002E00
02D00001F400
0740000BFFFF
ENDCHAR
STARTCHAR threequarters
ENCODING 190
SWIDTH 978 0
DWIDTH 27 0
BBX 25 19 1 0
BITMAP
1BFE400002C000
6406D0000B4000
0000D0001D0000
00068000780000
02FE0000E00000
0006D002C00000
0000A00B400000
0000A01D000000
A406D078000000
1BFE40F001F400
000002D007B400
000007400E7400
00001E00387400
00003800E07400
0000B002807400
0002D00B007400
0007401FFFFFC0
001E0000007400
00380000007400
ENDCHAR
STARTCHAR questiondown
ENCODING 191
SWIDTH 568 0
DWIDTH 16 0
BBX 13 19 2 0
BITMAP
0002E000
0002E000
0002E000
00000000
00000000
00000000
0000E000
0000E000
0006E000
01BE9000
0B900000
3D000000
B4000000
E0000000
F0000000
B4000000
7E401640
1FFFFF40
01BFE900
ENDCHAR
STARTCHAR Agrave
ENCODING 192
SWIDTH 812 0
DWIDTH 23 0
BBX 22 24 0 0
BITMAP
000240000000
0007F4000000
00006F400000
000002800000
000000000000
00000F800000
00001FD00000
00003DE00000
000074B40000
0000F0380000
0001D02D0000
0003800E0000
000740074000
000E00038000
002D0001D000
00380000E000
00B000007400
00FFFFFFFC00
02FFFFFFFD00
038000000F00
0B4000000740
0E00000003C0
2D00000001D0
7800000000F0
ENDCHAR
STARTCHAR Aacute
ENCODING 193
SWIDTH 812 0
DWIDTH 23 0
BBX 22 24 0 0
BITMAP
000000060000
0000007E0000
000007E40000
000009000000
000000000000
00000F800000
00001FD00000
00003DE00000
000074B40000
0000F0380000
0001D02D0000
0003800E0000
000740074000
000E00038000
002D0001D000
00380000E000
00B000007400
00FFFFFFFC00
02FFFFFFFD00
038000000F00
0B4000000740
0E00000003C0
2D00000001D0
7800000000F0
ENDCHAR
STARTCHAR Acircumflex
ENCODING 194
SWIDTH 812 0
DWIDTH 23 0
BBX 22 24 0 0
BITMAP
000007400000
00007FE40000
0006E46E0000
000A00064000
000000000000
00000F800000
00001FD00000
00003DE00000
000074B40000
0000F0380000
0001D02D0000
0003800E0000
000740074000
000E00038000
002D0001D000
00380000E000
00B000007400
00FFFFFFFC00
02FFFFFFFD00
038000000F00
0B4000000740
0E00000003C0
2D00000001D0
7800000000F0
ENDCHAR
STARTCHAR Atilde
ENCODING 195
SWIDTH 812 0
DWIDTH 23 0
BBX 22 24 0 0
BITMAP
0001F8034000
00034B4B0000
000701BD0000
000000000000
000000000000
00000F800000
00001FD00000
00003DE00000
000074B40000
0000F0380000
0001D02D0000
0003800E0000
000740074000
000E00038000
002D0001D000
00380000E000
00B000007400
00FFFFFFFC00
02FFFFFFFD00
038000000F00
0B4000000740
0E00000003C0
2D00000001D0
7800000000F0
ENDCHAR
STARTCHAR Adieresis
ENCODING 196
SWIDTH 812 0
DWIDTH 23 0
BBX 22 23 0 0
BITMAP
0001E03C0000
0001E03C0000
000000000000
000000000000
00000F800000
00001FD00000
00003DE00000
000074B40000
0000F0380000
0001D02D0000
0003800E0000
000740074000
000E00038000
002D0001D000
00380000E000
00B000007400
00FFFFFFFC00
02FFFFFFFD00
038000000F00
0B4000000740
0E00000003C0
2D00000001D0
7800000000F0
ENDCHAR
STARTCHAR Aring
ENCODING 197
SWIDTH 812 0
DWIDTH 23 0
BBX 22 25 0 0
BITMAP
00002FE00000
0000E0780000
0000D02C0000
0000E0780000
00002FE00000
000000000000
00000F800000
00001FD00000
00003DE00000
000074B40000
0000F0380000
0001D02D0000
0003800E0000
000740074000
000E00038000
002D0001D000
00380000E000
00B000007400
00FFFFFFFC00
02FFFFFFFD00
038000000F00
0B4000000740
0E00000003C0
2D00000001D0
7800000000F0
ENDCHAR
STARTCHAR AE
ENCODING 198
SWIDTH 1172 0
DWIDTH 33 0
BBX 31 19 0 0
BITMAP
000000BFFFFFFFF8
000001FFFFFFFFF8
000003D380000000
00000B8380000000
00001E0380000000
00003C0380000000
0000B40380000000
0001E00380000000
0003C003FFFFFFE0
000B4003FFFFFFE0
001E000380000000
003C000380000000
00BFFFFF80000000
01FFFFFF80000000
03D0000380000000
0B80000380000000
1F00000380000000
3D000003FFFFFFF8
B8000003FFFFFFF8
ENDCHAR
STARTCHAR Ccedilla
ENCODING 199
SWIDTH 869 0
DWIDTH 24 0
BBX 21 24 2 -5
BITMAP
0005BFFA4000
007FFFFFF900
02FE4001AF40
0F9000000240
2E0000000000
780000000000
B40000000000
F00000000000
E00000000000
E00000000000
E00000000000
F00000000000
B40000000000
780000000000
2E0000000000
0F9000000240
02FE4001AF40
006FFFFFF900
0005AFFA4000
000009000000
00001FD00000
000000B00000
000090B00000
00006F900000
ENDCHAR
STARTCHAR Egrave
ENCODING 200
SWIDTH 754 0
DWIDTH 21 0
BBX 16 24 3 0
BITMAP
02800000
02F80000
002F8000
00019000
00000000
FFFFFFFE
FFFFFFFE
F0000000
F0000000
F0000000
F0000000
F0000000
F0000000
FFFFFFFC
FFFFFFFC
F0000000
F0000000
F0000000
F0000000
F0000000
F0000000
F0000000
FFFFFFFF
FFFFFFFF
ENDCHAR
STARTCHAR Eacute
ENCODING 201
SWIDTH 754 0
DWIDTH 21 0
BBX 16 24 3 0
BITMAP
00000640
00006F40
0006E400
000A4000
00000000
FFFFFFFE
FFFFFFFE
F0000000
F0000000
F0000000
F0000000
F0000000
F0000000
FFFFFFFC
FFFFFFFC
F0000000
F0000000
F0000000
F0000000
F0000000
F0000000
F0000000
FFFFFFFF
FFFFFFFF
ENDCHAR
STARTCHAR Ecircumflex
ENCODING 202
SWIDTH 754 0
DWIDTH 21 0
BBX 16 24 3 0
BITMAP
00068000
002FF400
02F42F40
06400180
00000000
FFFFFFFE
FFFFFFFE
F0000000
F0000000
F0000000
F0000000
F0000000
F0000000
FFFFFFFC
FFFFFFFC
F0000000
F0000000
F0000000
F0000000
F0000000
F0000000
F0000000
FFFFFFFF
FFFFFFFF
ENDCHAR
STARTCHAR Edieresis
ENCODING 203
SWIDTH 754 0
DWIDTH 21 0
BBX 16 23 3 0
BITMAP
00F01E00
00F01E00
00000000
00000000
FFFFFFFE
FFFFFFFE
F0000000
F0000000
F0000000
F0000000
F0000000
F0000000
FFFFFFFC
FFFFFFFC
F0000000
F0000000
F0000000
F0000000
F0000000
F0000000
F0000000
FFFFFFFF
FFFFFFFF
ENDCHAR
STARTCHAR Igrave
ENCODING 204
SWIDTH 287 0
DWIDTH 8 0
BBX 7 24 -1 0
BITMAP
6400
7E40
07E4
0064
0000
00F0
00F0
00F0
00F0
00F0
00F0
00F0
00F0
00F0
00F0
00F0
00F0
00F0
00F0
00F0
00F0
00F0
00F0
00F0
ENDCHAR
STARTCHAR Iacute
ENCODING 205
SWIDTH 287 0
DWIDTH 8 0
BBX 7 24 2 0
BITMAP
0064
06F4
6F40
6400
0000
3C00
3C00
3C00
3C00
3C00
3C00
3C00
3C00
3C00
3C00
3C00
3C00
3C00
3C00
3C00
3C00
3C00
3C00
3C00
ENDCHAR
STARTCHAR Icircumflex
ENCODING 206
SWIDTH 287 0
DWIDTH 8 0
BBX 10 24 -1 0
BITMAP
00A400
0BFE00
7E07D0
900060
000000
00F000
00F000
00F000
00F000
00F000
00F000
00F000
00F000
00F000
00F000
00F000
00F000
00F000
00F000
00F000
00F000
00F000
00F000
00F000
ENDCHAR
STARTCHAR Idieresis
ENCODING 207
SWIDTH 287 0
DWIDTH 8 0
BBX 8 23 0 0
BITMAP
B41E
B41E
0000
0000
03C0
03C0
03C0
03C0
03C0
03C0
03C0
03C0
03C0
03C0
03C0
03C0
03C0
03C0
03C0
03C0
03C0
03C0
03C0
ENDCHAR
STARTCHAR Eth
ENCODING 208
SWIDTH 910 0
DWIDTH 25 0
BBX 24 19 0 0
BITMAP
03FFFFFA9000
03FFFFFFFE00
03C00005BFC0
03C0000007F0
03C0000000B8
03C00000003C
03C00000002D
03C00000001E
03C00000001E
BFFFFF80000E
BFFFFF80000E
03C00000001E
03C00000002D
03C00000003C
03C0000000B8
03C0000002F0
03C000016FD0
03FFFFFFFE00
03FFFFFA9000
ENDCHAR
STARTCHAR Ntilde
ENCODING 209
SWIDTH 936 0
DWIDTH 26 0
BBX 20 24 3 0
BITMAP
000BD01C00
001C692800
002806E000
0000000000
0000000000
F80000000B
FE0000000B
FB4000000B
F2D000000B
F0F400000B
F03D00000B
F00F40000B
F003D0000B
F000F4000B
F0003D000B
F0001F400B
F00007D00B
F00001F40B
F000007D0B
F000001F4B
F0000007DB
F0000001FB
F00000007F
F00000001F
ENDCHAR
STARTCHAR Ograve
ENCODING 210
SWIDTH 983 0
DWIDTH 28 0
BBX 24 24 2 0
BITMAP
000280000000
0002F8000000
00002F800000
000001900000
000000000000
0006AFFA4000
007FFFFFF800
02F94005BF40
0F90000007E0
2E00000000F4
78000000007C
B4000000002D
F0000000001D
E0000000000E
E0000000000E
E0000000000E
F0000000001D
B4000000002D
78000000007C
2E00000000F4
0F90000007E0
02F94005BF40
007FFFFFF900
0006BFFA4000
ENDCHAR
STARTCHAR Oacute
ENCODING 211
SWIDTH 983 0
DWIDTH 28 0
BBX 24 24 2 0
BITMAP
000000064000
0000006F4000
000006E40000
00000A400000
000000000000
0006AFFA4000
007FFFFFF800
02F94005BF40
0F90000007E0
2E00000000F4
78000000007C
B4000000002D
F0000000001D
E0000000000E
E0000000000E
E0000000000E
F0000000001D
B4000000002D
78000000007C
2E00000000F4
0F90000007E0
02F94005BF40
007FFFFFF900
0006BFFA4000
ENDCHAR
STARTCHAR Ocircumflex
ENCODING 212
SWIDTH 983 0
DWIDTH 28 0
BBX 24 24 2 0
BITMAP
000006800000
00002FF40000
0002F42F4000
000640028000
000000000000
0006AFFA4000
007FFFFFF800
02F94005BF40
0F90000007E0
2E00000000F4
78000000007C
B4000000002D
F0000000001D
E0000000000E
E0000000000E
E0000000000E
F0000000001D
B4000000002D
78000000007C
2E00000000F4
0F90000007E0
02F94005BF40
007FFFFFF900
0006BFFA4000
ENDCHAR
STARTCHAR Otilde
ENCODING 213
SWIDTH 983 0
DWIDTH 28 0
BBX 24 24 2 0
BITMAP
0000B9028000
000287874000
000340BD0000
000000000000
000000000000
0006AFFA4000
007FFFFFF800
02F94005BF40
0F90000007E0
2E00000000F4
78000000007C
B4000000002D
F0000000001D
E0000000000E
E0000000000E
E0000000000E
F0000000001D
B4000000002D
78000000007C
2E00000000F4
0F90000007E0
02F94005BF40
007FFFFFF900
0006BFFA4000
ENDCHAR
STARTCHAR Odieresis
ENCODING 214
SWIDTH 983 0
DWIDTH 28 0
BBX 24 23 2 0
BITMAP
0000F01E0000
0000F01E0000
000000000000
000000000000
0006AFFA4000
007FFFFFF800
02F94005BF40
0F90000007E0
2E00000000F4
78000000007C
B4000000002D
F0000000001D
E0000000000E
E0000000000E
E0000000000E
F0000000001D
B4000000002D
78000000007C
2E00000000F4
0F90000007E0
02F94005BF40
007FFFFFF900
0006BFFA4000
ENDCHAR
STARTCHAR multiply
ENCODING 215
SWIDTH 634 0
DWIDTH 18 0
BBX 12 12 3 4
BITMAP
600008
78002D
2E00B4
0B42D0
02DB40
00BD00
00BD00
02EB40
0B82D0
2E00B4
78002D
600009
ENDCHAR
STARTCHAR Oslash
ENCODING 216
SWIDTH 983 0
DWIDTH 28 0
BBX 24 23 2 -2
BITMAP
000000000380
000000000B00
0006AFFA5D00
007FFFFFFC00
02F94005FF40
0F900001D7E0
2E00000780F4
7800000E007C
B400002C002D
F0000074001D
E00001D0000E
E0000380000E
E0000B00000E
F0002C00001D
B0007400002D
7801E000007C
2E03800000F4
0F9B000007E0
02FE4005BF40
007FFFFFF900
00B5BFFA4000
01D000000000
078000000000
ENDCHAR
STARTCHAR Ugrave
ENCODING 217
SWIDTH 891 0
DWIDTH 25 0
BBX 19 24 3 0
BITMAP
0024000000
002F400000
0006F40000
0000280000
0000000000
E00000002C
E00000002C
E00000002C
E00000002C
E00000002C
E00000002C
E00000002C
E00000002C
E00000002C
E00000002C
E00000002C
E00000002C
E00000002C
F00000003C
B400000078
7D000002F4
2FE4006FD0
07FFFFFF40
006BFFA400
ENDCHAR
STARTCHAR Uacute
ENCODING 218
SWIDTH 891 0
DWIDTH 25 0
BBX 19 24 3 0
BITMAP
0000006000
000007E000
00007E4000
0000900000
0000000000
E00000002C
E00000002C
E00000002C
E00000002C
E00000002C
E00000002C
E00000002C
E00000002C
E00000002C
E00000002C
E00000002C
E00000002C
E00000002C
F00000003C
B400000078
7D000002F4
2FE4006FD0
07FFFFFF40
006BFFA400
ENDCHAR
STARTCHAR Ucircumflex
ENCODING 219
SWIDTH 891 0
DWIDTH 25 0
BBX 19 24 3 0
BITMAP
0000740000
0007FF4000
002E46E000
00A4006800
0000000000
E00000002C
E00000002C
E00000002C
E00000002C
E00000002C
E00000002C
E00000002C
E00000002C
E00000002C
E00000002C
E00000002C
E00000002C
E00000002C
F00000003C
B400000078
7D000002F4
2FE4006FD0
07FFFFFF40
006BFFA400
ENDCHAR
STARTCHAR Udieresis
ENCODING 220
SWIDTH 891 0
DWIDTH 25 0
BBX 19 23 3 0
BITMAP
001E02D000
001E02D000
0000000000
0000000000
E00000002C
E00000002C
E00000002C
E00000002C
E00000002C
E00000002C
E00000002C
E00000002C
E00000002C
E00000002C
E00000002C
E00000002C
E00000002C
F00000003C
B400000078
7D000002F4
2FE4006FD0
07FFFFFF40
006BFFA400
ENDCHAR
STARTCHAR Yacute
ENCODING 221
SWIDTH 763 0
DWIDTH 21 0
BBX 19 24 1 0
BITMAP
0000006000
000006F400
00006E4000
0000A00000
0000000000
B40000003C
2D000000F4
0F400002D0
07C0000B80
01E0001E00
00B8007C00
002D00F400
000F43D000
0007DB8000
0001FE0000
0000BC0000
0000780000
0000780000
0000780000
0000780000
0000780000
0000780000
0000780000
0000780000
ENDCHAR
STARTCHAR Thorn
ENCODING 222
SWIDTH 787 0
DWIDTH 22 0
BBX 18 19 3 0
BITMAP
F000000000
F000000000
F000000000
FFFFFF9000
FFFFFFFD00
F000016F40
F0000007C0
F0000002D0
F0000001D0
F0000001D0
F0000002D0
F0000007C0
F000006F40
FFFFFFFD00
FFFFFF9000
F000000000
F000000000
F000000000
F000000000
ENDCHAR
STARTCHAR germandbls
ENCODING 223
SWIDTH 863 0
DWIDTH 24 0
BBX 21 19 2 0
BITMAP
001BFFA40000
01FFFFFF8000
0BE5005BF000
2F400000B800
3C0000003800
780000003800
74000000B400
74000016E000
7407FFFE4000
7407FFFF9000
74000016F800
740000002E00
740000000B40
740000000740
740000000740
740000001F00
74394005BD00
743FFFFFF400
7406BFFA4000
ENDCHAR
STARTCHAR agrave
ENCODING 224
SWIDTH 888 0
DWIDTH 25 0
BBX 21 24 1 0
BITMAP
000240000000
0007F4000000
00006F400000
000002800000
000000000000
016AFFFA4000
0BFFFFFFE400
06940006BD00
000000001F00
000000000780
000000000380
0000000002C0
0000016ABFC0
0006BFFFFFC0
01BFFA9502C0
0BF9000002C0
2F40000002C0
3C00000002C0
7800000002C0
7800000003C0
3D0000006FC0
1F94005BFFC0
07FFFFFF92C0
006FFE9402C0
ENDCHAR
STARTCHAR aacute
ENCODING 225
SWIDTH 888 0
DWIDTH 25 0
BBX 21 24 1 0
BITMAP
0000000A0000
000000BE0000
00000BE00000
000009000000
000000000000
016AFFFA4000
0BFFFFFFE400
06940006BD00
000000001F00
000000000780
000000000380
0000000002C0
0000016ABFC0
0006BFFFFFC0
01BFFA9502C0
0BF9000002C0
2F40000002C0
3C00000002C0
7800000002C0
7800000003C0
3D0000006FC0
1F94005BFFC0
07FFFFFF92C0
006FFE9402C0
ENDCHAR
STARTCHAR acircumflex
ENCODING 226
SWIDTH 888 0
DWIDTH 25 0
BBX 21 24 1 0
BITMAP
00000B400000
00007FE40000
0006E46E0000
000A00064000
000000000000
016AFFFA4000
0BFFFFFFE400
06940006BD00
000000001F00
000000000780
000000000380
0000000002C0
0000016ABFC0
0006BFFFFFC0
01BFFA9502C0
0BF9000002C0
2F40000002C0
3C00000002C0
7800000002C0
7800000003C0
3D0000006FC0
1F94005BFFC0
07FFFFFF92C0
006FFE9402C0
ENDCHAR
STARTCHAR atilde
ENCODING 227
SWIDTH 888 0
DWIDTH 25 0
BBX 21 24 1 0
BITMAP
0001F8070000
00034B4A0000
000701B80000
000000000000
000000000000
016AFFFA4000
0BFFFFFFE400
06940006BD00
000000001F00
000000000780
000000000380
0000000002C0
0000016ABFC0
0006BFFFFFC0
01BFFA9502C0
0BF9000002C0
2F40000002C0
3C00000002C0
7800000002C0
7800000003C0
3D0000006FC0
1F94005BFFC0
07FFFFFF92C0
006FFE9402C0
ENDCHAR
STARTCHAR adieresis
ENCODING 228
SWIDTH 888 0
DWIDTH 25 0
BBX 21 23 1 0
BITMAP
0001E03C0000
0001E03C0000
000000000000
000000000000
016AFFFA4000
0BFFFFFFE400
06940006BD00
000000001F00
000000000780
000000000380
0000000002C0
0000016ABFC0
0006BFFFFFC0
01BFFA9502C0
0BF9000002C0
2F40000002C0
3C00000002C0
7800000002C0
7800000003C0
3D0000006FC0
1F94005BFFC0
07FFFFFF92C0
006FFE9402C0
ENDCHAR
STARTCHAR aring
ENCODING 229
SWIDTH 888 0
DWIDTH 25 0
BBX 21 25 1 0
BITMAP
00002FE00000
0000E0780000
0001D02C0000
0000E0780000
00002FE00000
000000000000
016AFFFA4000
0BFFFFFFE400
06940006BD00
000000001F00
000000000780
000000000380
0000000002C0
0000016ABFC0
0006BFFFFFC0
01BFFA9502C0
0BF9000002C0
2F40000002C0
3C00000002C0
7800000002C0
7800000003C0
3D0000006FC0
1F94005BFFC0
07FFFFFF92C0
006FFE9402C0
ENDCHAR
STARTCHAR ae
ENCODING 230
SWIDTH 1551 0
DWIDTH 43 0
BBX 41 19 1 0
BITMAP
016AFFEA40001AFFA40000
0BFFFFFFF401BFFFFF8000
06940006BD0BE5005BE000
000000001F6E400000B800
0000000007F80000001E00
0000000003E00000000B00
0000000002D00000000340
0000016ABFC00000000380
0006BFFFFFFFFFFFFFFF80
01BFFA9503FFFFFFFFFFC0
0BF9000003C00000000000
2F40000002D00000000000
3C00000001E00000000000
7800000000F40000000000
7800000002FD0000000000
3D0000006FEF4000000000
1F94005BFE07F940016900
07FFFFFF9001BFFFFFFD00
006FFFA4000006BFFE9400
ENDCHAR
STARTCHAR ccedilla
ENCODING 231
SWIDTH 869 0
DWIDTH 24 0
BBX 21 24 2 -5
BITMAP
0005BFFA4000
007FFFFFF900
02FE4001AF40
0F9000000240
2E0000000000
780000000000
B40000000000
F00000000000
E00000000000
E00000000000
E00000000000
F00000000000
B40000000000
780000000000
2E0000000000
0F9000000240
02FE4001AF40
006FFFFFF900
0005AFFA4000
000009000000
00001FD00000
000000B00000
000090B00000
00006F900000
ENDCHAR
STARTCHAR egrave
ENCODING 232
SWIDTH 910 0
DWIDTH 25 0
BBX 22 24 2 0
BITMAP
000A00000000
000BE0000000
0000BE000000
000006400000
000000000000
0006BFE90000
007FFFFFD000
02F94016F800
0B8000002E00
2D0000000B40
7800000002C0
B000000001D0
E000000000D0
FFFFFFFFFFE0
FFFFFFFFFFE0
E00000000000
F00000000000
B40000000000
7C0000000000
2E0000000000
0BD000000000
02FE50015A00
006FFFFFFF00
0005BFFEA400
ENDCHAR
STARTCHAR eacute
ENCODING 233
SWIDTH 910 0
DWIDTH 25 0
BBX 22 24 2 0
BITMAP
000000190000
000001BD0000
00001B900000
000029000000
000000000000
0006BFE90000
007FFFFFD000
02F94016F800
0B8000002E00
2D0000000B40
7800000002C0
B000000001D0
E000000000D0
FFFFFFFFFFE0
FFFFFFFFFFE0
E00000000000
F00000000000
B40000000000
7C0000000000
2E0000000000
0BD000000000
02FE50015A00
006FFFFFFF00
0005BFFEA400
ENDCHAR
STARTCHAR ecircumflex
ENCODING 234
SWIDTH 910 0
DWIDTH 25 0
BBX 22 24 2 0
BITMAP
00001A000000
0000BFD00000
000BD0BD0000
0019000A0000
000000000000
0006BFE90000
007FFFFFD000
02F94016F800
0B8000002E00
2D0000000B40
7800000002C0
B000000001D0
E000000000D0
FFFFFFFFFFE0
FFFFFFFFFFE0
E00000000000
F00000000000
B40000000000
7C0000000000
2E0000000000
0BD000000000
02FE50015A00
006FFFFFFF00
0005BFFEA400
ENDCHAR
STARTCHAR edieresis
ENCODING 235
SWIDTH 910 0
DWIDTH 25 0
BBX 22 23 2 0
BITMAP
0003C0780000
0003C0780000
000000000000
000000000000
0006BFE90000
007FFFFFD000
02F94016F800
0B8000002E00
2D0000000B40
7800000002C0
B000000001D0
E000000000D0
FFFFFFFFFFE0
FFFFFFFFFFE0
E00000000000
F00000000000
B40000000000
7C0000000000
2E0000000000
0BD000000000
02FE50015A00
006FFFFFFF00
0005BFFEA400
ENDCHAR
STARTCHAR igrave
ENCODING 236
SWIDTH 287 0
DWIDTH 8 0
BBX 7 24 -1 0
BITMAP
6400
7E40
07E4
0064
0000
00F0
00F0
00F0
00F0
00F0
00F0
00F0
00F0
00F0
00F0
00F0
00F0
00F0
00F0
00F0
00F0
00F0
00F0
00F0
ENDCHAR
STARTCHAR iacute
ENCODING 237
SWIDTH 287 0
DWIDTH 8 0
BBX 7 24 2 0
BITMAP
0024
02F8
2F40
6400
0000
3C00
3C00
3C00
3C00
3C00
3C00
3C00
3C00
3C00
3C00
3C00
3C00
3C00
3C00
3C00
3C00
3C00
3C00
3C00
ENDCHAR
STARTCHAR icircumflex
ENCODING 238
SWIDTH 287 0
DWIDTH 8 0
BBX 10 24 -1 0
BITMAP
00A400
0BFE00
7E07D0
900060
000000
00F000
00F000
00F000
00F000
00F000
00F000
00F000
00F000
00F000
00F000
00F000
00F000
00F000
00F000
00F000
00F000
00F000
00F000
00F000
ENDCHAR
STARTCHAR idieresis
ENCODING 239
SWIDTH 287 0
DWIDTH 8 0
BBX 8 23 0 0
BITMAP
B41E
B41E
0000
0000
03C0
03C0
03C0
03C0
03C0
03C0
03C0
03C0
03C0
03C0
03C0
03C0
03C0
03C0
03C0
03C0
03C0
03C0
03C0
ENDCHAR
STARTCHAR eth
ENCODING 240
SWIDTH 910 0
DWIDTH 25 0
BBX 24 19 0 0
BITMAP
03FFFFFA9000
03FFFFFFFE00
03C00005BFC0
03C0000007F0
03C0000000B8
03C00000003C
03C00000002D
03C00000001E
03C00000001E
BFFFFF80000E
BFFFFF80000E
03C00000001E
03C00000002D
03C00000003C
03C0000000B8
03C0000002F0
03C000016FD0
03FFFFFFFE00
03FFFFFA9000
ENDCHAR
STARTCHAR ntilde
ENCODING 241
SWIDTH 933 0
DWIDTH 26 0
BBX 20 24 3 0
BITMAP
000B902800
0028787400
00340BD000
0000000000
0000000000
F0006FFE40
F01BFFFFE0
F1BF9005F8
FBE400002D
FE4000000E
F40000000B
F00000000B
F00000000B
F00000000B
F00000000B
F00000000B
F00000000B
F00000000B
F00000000B
F00000000B
F00000000B
F00000000B
F00000000B
F00000000B
ENDCHAR
STARTCHAR ograve
ENCODING 242
SWIDTH 983 0
DWIDTH 28 0
BBX 24 24 2 0
BITMAP
000280000000
0002F8000000
00002F800000
000001900000
000000000000
0006AFFA4000
007FFFFFF800
02F94005BF40
0F90000007E0
2E00000000F4
78000000007C
B4000000002D
F0000000001D
E0000000000E
E0000000000E
E0000000000E
F0000000001D
B4000000002D
78000000007C
2E00000000F4
0F90000007E0
02F94005BF40
007FFFFFF900
0006BFFA4000
ENDCHAR
STARTCHAR oacute
ENCODING 243
SWIDTH 983 0
DWIDTH 28 0
BBX 24 24 2 0
BITMAP
000000064000
0000006F4000
000006E40000
00000A400000
000000000000
0006AFFA4000
007FFFFFF800
02F94005BF40
0F90000007E0
2E00000000F4
78000000007C
B4000000002D
F0000000001D
E0000000000E
E0000000000E
E0000000000E
F0000000001D
B4000000002D
78000000007C
2E00000000F4
0F90000007E0
02F94005BF40
007FFFFFF900
0006BFFA4000
ENDCHAR
STARTCHAR ocircumflex
ENCODING 244
SWIDTH 983 0
DWIDTH 28 0
BBX 24 24 2 0
BITMAP
000006800000
00002FF40000
0002F42F4000
000640028000
000000000000
0006AFFA4000
007FFFFFF800
02F94005BF40
0F90000007E0
2E00000000F4
78000000007C
B4000000002D
F0000000001D
E0000000000E
E0000000000E
E0000000000E
F0000000001D
B4000000002D
78000000007C
2E00000000F4
0F90000007E0
02F94005BF40
007FFFFFF900
0006BFFA4000
ENDCHAR
STARTCHAR otilde
ENCODING 245
SWIDTH 983 0
DWIDTH 28 0
BBX 24 24 2 0
BITMAP
0000B9028000
000287874000
000340BD0000
000000000000
000000000000
0006AFFA4000
007FFFFFF800
02F94005BF40
0F90000007E0
2E00000000F4
78000000007C
B4000000002D
F0000000001D
E0000000000E
E0000000000E
E0000000000E
F0000000001D
B4000000002D
78000000007C
2E00000000F4
0F90000007E0
02F94005BF40
007FFFFFF900
0006BFFA4000
ENDCHAR
STARTCHAR odieresis
ENCODING 246
SWIDTH 983 0
DWIDTH 28 0
BBX 24 23 2 0
BITMAP
0000F01E0000
0000F01E0000
000000000000
000000000000
0006AFFA4000
007FFFFFF800
02F94005BF40
0F90000007E0
2E00000000F4
78000000007C
B4000000002D
F0000000001D
E0000000000E
E0000000000E
E0000000000E
F0000000001D
B4000000002D
78000000007C
2E00000000F4
0F90000007E0
02F94005BF40
007FFFFFF900
0006BFFA4000
ENDCHAR
STARTCHAR divide
ENCODING 247
SWIDTH 634 0
DWIDTH 18 0
BBX 14 12 2 4
BITMAP
000E0000
000E0000
00000000
00000000
00000000
BFFFFFD0
BFFFFFD0
00000000
00000000
00000000
000E0000
000E0000
ENDCHAR
STARTCHAR oslash
ENCODING 248
SWIDTH 983 0
DWIDTH 28 0
BBX 24 23 2 -2
BITMAP
000000000380
000000000B00
0006AFFA5D00
007FFFFFFC00
02F94005FF40
0F900001D7E0
2E00000780F4
7800000E007C
B400002C002D
F0000074001D
E00001D0000E
E0000380000E
E0000B00000E
F0002C00001D
B0007400002D
7801E000007C
2E03800000F4
0F9B000007E0
02FE4005BF40
007FFFFFF900
00B5BFFA4000
01D000000000
078000000000
ENDCHAR
STARTCHAR ugrave
ENCODING 249
SWIDTH 931 0
DWIDTH 26 0
BBX 20 24 3 0
BITMAP
0019000000
001F900000
0001F90000
0000190000
0000000000
E00000000B
E00000000B
E00000000B
E00000000B
E00000000B
E00000000B
E00000000B
E00000000B
E00000000B
E00000000B
E00000000B
E00000000B
F00000000B
F00000001F
B4000001BF
7800001BEF
2F5006FE4B
0BFFFFE40B
01AFF9000B
ENDCHAR
STARTCHAR uacute
ENCODING 250
SWIDTH 931 0
DWIDTH 26 0
BBX 20 24 3 0
BITMAP
0000006400
000006F400
00006F4000
0000640000
0000000000
E00000000B
E00000000B
E00000000B
E00000000B
E00000000B
E00000000B
E00000000B
E00000000B
E00000000B
E00000000B
E00000000B
E00000000B
F00000000B
F00000001F
B4000001BF
7800001BEF
2F5006FE4B
0BFFFFE40B
01AFF9000B
ENDCHAR
STARTCHAR ucircumflex
ENCODING 251
SWIDTH 931 0
DWIDTH 26 0
BBX 20 24 3 0
BITMAP
0000280000
0002FF8000
001F82F400
0024001800
0000000000
E00000000B
E00000000B
E00000000B
E00000000B
E00000000B
E00000000B
E00000000B
E00000000B
E00000000B
E00000000B
E00000000B
E00000000B
F00000000B
F00000001F
B4000001BF
7800001BEF
2F5006FE4B
0BFFFFE40B
01AFF9000B
ENDCHAR
STARTCHAR udieresis
ENCODING 252
SWIDTH 931 0
DWIDTH 26 0
BBX 20 23 3 0
BITMAP
000B41E000
000B41E000
0000000000
0000000000
E00000000B
E00000000B
E00000000B
E00000000B
E00000000B
E00000000B
E00000000B
E00000000B
E00000000B
E00000000B
E00000000B
E00000000B
F00000000B
F00000001F
B4000001BF
7800001BEF
2F5006FE4B
0BFFFFE40B
01AFF9000B
ENDCHAR
STARTCHAR yacute
ENCODING 253
SWIDTH 911 0
DWIDTH 26 0
BBX 21 24 2 0
BITMAP
000000180000
000001F80000
00001F900000
000024000000
000000000000
740000000740
740000000740
740000000740
740000000740
740000000740
740000000740
780000000F40
380000002F40
2D000000BF40
1F400007E740
0BE5016F8740
01FFFFF90740
001BFE800B40
000000000F00
000000002E00
00000001BC00
6950006BF400
7FFFFFFF8000
16BFFFA40000
ENDCHAR
STARTCHAR thorn
ENCODING 254
SWIDTH 787 0
DWIDTH 22 0
BBX 18 19 3 0
BITMAP
F000000000
F000000000
F000000000
FFFFFF9000
FFFFFFFD00
F000016F40
F0000007C0
F0000002D0
F0000001D0
F0000001D0
F0000002D0
F0000007C0
F000006F40
FFFFFFFD00
FFFFFF9000
F000000000
F000000000
F000000000
F000000000
ENDCHAR
STARTCHAR ydieresis
ENCODING 255
SWIDTH 911 0
DWIDTH 26 0
BBX 21 23 2 0
BITMAP
000780F00000
000780F00000
000000000000
000000000000
740000000740
740000000740
740000000740
740000000740
740000000740
740000000740
780000000F40
380000002F40
2D000000BF40
1F400007E740
0BE5016F8740
01FFFFF90740
001BFE800B40
000000000F00
000000002E00
00000001BC00
6950006BF400
7FFFFFFF8000
16BFFFA40000
ENDCHAR
STARTCHAR Amacron
ENCODING 256
SWIDTH 812 0
DWIDTH 23 0
BBX 22 23 0 0
BITMAP
0001FFFC0000
0001FFFC0000
000000000000
000000000000
00000F800000
00001FD00000
00003DE00000
000074B40000
0000F0380000
0001D02D0000
0003800E0000
000740074000
000E00038000
002D0001D000
00380000E000
00B000007400
00FFFFFFFC00
02FFFFFFFD00
038000000F00
0B4000000740
0E00000003C0
2D00000001D0
7800000000F0
ENDCHAR
STARTCHAR amacron
ENCODING 257
SWIDTH 888 0
DWIDTH 25 0
BBX 21 23 1 0
BITMAP
0001FFFC0000
0001FFFC0000
000000000000
000000000000
016AFFFA4000
0BFFFFFFE400
06940006BD00
000000001F00
000000000780
000000000380
0000000002C0
0000016ABFC0
0006BFFFFFC0
01BFFA9502C0
0BF9000002C0
2F40000002C0
3C00000002C0
7800000002C0
7800000003C0
3D0000006FC0
1F94005BFFC0
07FFFFFF92C0
006FFE9402C0
ENDCHAR
STARTCHAR Abreve
ENCODING 258
SWIDTH 812 0
DWIDTH 23 0
BBX 22 24 0 0
BITMAP
0003800B0000
0001E06D0000
00006FE40000
000000000000
000000000000
00000F800000
00001FD00000
00003DE00000
000074B40000
0000F0380000
0001D02D0000
0003800E0000
000740074000
000E00038000
002D0001D000
00380000E000
00B000007400
00FFFFFFFC00
02FFFFFFFD00
038000000F00
0B4000000740
0E00000003C0
2D00000001D0
7800000000F0
ENDCHAR
STARTCHAR abreve
ENCODING 259
SWIDTH 888 0
DWIDTH 25 0
BBX 21 24 1 0
BITMAP
0007400B0000
0002D06D0000
00006FE40000
000000000000
000000000000
016AFFFA4000
0BFFFFFFE400
06940006BD00
000000001F00
000000000780
000000000380
0000000002C0
0000016ABFC0
0006BFFFFFC0
01BFFA9502C0
0BF9000002C0
2F40000002C0
3C00000002C0
7800000002C0
7800000003C0
3D0000006FC0
1F94005BFFC0
07FFFFFF92C0
006FFE9402C0
ENDCHAR
STARTCHAR Aogonek
ENCODING 260
SWIDTH 812 0
DWIDTH 23 0
BBX 24 24 0 -5
BITMAP
00000F800000
00001FD00000
00003DE00000
000074B40000
0000F0380000
0001D02D0000
0003800E0000
000740074000
000E00038000
002D0001D000
00380000E000
00B000007400
00FFFFFFFC00
02FFFFFFFD00
038000000F00
0B4000000740
0E00000003C0
2D00000001D0
7800000000F0
0000000001D0
000000000740
000000000E00
000000000B42
0000000002F9
ENDCHAR
STARTCHAR aogonek
ENCODING 261
SWIDTH 888 0
DWIDTH 25 0
BBX 23 24 1 -5
BITMAP
016AFFFA4000
0BFFFFFFE400
06940006BD00
000000001F00
000000000780
000000000380
0000000002C0
0000016ABFC0
0006BFFFFFC0
01BFFA9502C0
0BF9000002C0
2F40000002C0
3C00000002C0
7800000002C0
7800000003C0
3D0000001FC0
1F94005BFFC0
07FFFFFF92C0
006FFE9403C0
000000000A40
000000002C00
000000003400
000000003818
000000001BE4
ENDCHAR
STARTCHAR Cacute
ENCODING 262
SWIDTH 869 0
DWIDTH 24 0
BBX 21 24 2 0
BITMAP
000000060000
0000007F4000
000007E40000
00000A000000
000000000000
0005BFFA4000
007FFFFFF900
02FE4001AF40
0F9000000240
2E0000000000
780000000000
B40000000000
F00000000000
E00000000000
E00000000000
E00000000000
F00000000000
B40000000000
780000000000
2E0000000000
0F9000000240
02FE4001AF40
007FFFFFF900
0005BFFA4000
ENDCHAR
STARTCHAR cacute
ENCODING 263
SWIDTH 869 0
DWIDTH 24 0
BBX 21 24 2 0
BITMAP
000000060000
0000007F4000
000007E40000
00000A000000
000000000000
0005BFFA4000
007FFFFFF900
02FE4001AF40
0F9000000240
2E0000000000
780000000000
B40000000000
F00000000000
E00000000000
E00000000000
E00000000000
F00000000000
B40000000000
780000000000
2E0000000000
0F9000000240
02FE4001AF40
007FFFFFF900
0005BFFA4000
ENDCHAR
STARTCHAR Ccircumflex
ENCODING 264
SWIDTH 869 0
DWIDTH 24 0
BBX 21 24 2 0
BITMAP
000007800000
00006FF40000
0002E46E4000
000640028000
000000000000
0005BFFA4000
007FFFFFF900
02FE4001AF40
0F9000000240
2E0000000000
780000000000
B40000000000
F00000000000
E00000000000
E00000000000
E00000000000
F00000000000
B40000000000
780000000000
2E0000000000
0F9000000240
02FE4001AF40
007FFFFFF900
0005BFFA4000
ENDCHAR
STARTCHAR ccircumflex
ENCODING 265
SWIDTH 869 0
DWIDTH 24 0
BBX 21 24 2 0
BITMAP
000007800000
00006FF40000
0002E46E4000
000640028000
000000000000
0005BFFA4000
007FFFFFF900
02FE4001AF40
0F9000000240
2E0000000000
780000000000
B40000000000
F00000000000
E00000000000
E00000000000
E00000000000
F00000000000
B40000000000
780000000000
2E0000000000
0F9000000240
02FE4001AF40
007FFFFFF900
0005BFFA4000
ENDCHAR
STARTCHAR Cdotaccent
ENCODING 266
SWIDTH 869 0
DWIDTH 24 0
BBX 21 23 2 0
BITMAP
000007800000
000007800000
000000000000
000000000000
0005BFFA4000
007FFFFFF900
02FE4001AF40
0F9000000240
2E0000000000
780000000000
B40000000000
F00000000000
E00000000000
E00000000000
E00000000000
F00000000000
B40000000000
780000000000
2E0000000000
0F9000000240
02FE4001AF40
007FFFFFF900
0005BFFA4000
ENDCHAR
STARTCHAR cdotaccent
ENCODING 267
SWIDTH 869 0
DWIDTH 24 0
BBX 21 23 2 0
BITMAP
000007800000
000007800000
000000000000
000000000000
0005BFFA4000
007FFFFFF900
02FE4001AF40
0F9000000240
2E0000000000
780000000000
B40000000000
F00000000000
E00000000000
E00000000000
E00000000000
F00000000000
B40000000000
780000000000
2E0000000000
0F9000000240
02FE4001AF40
007FFFFFF900
0005BFFA4000
ENDCHAR
STARTCHAR Ccaron
ENCODING 268
SWIDTH 869 0
DWIDTH 24 0
BBX 21 24 2 0
BITMAP
000640028000
0002E46E4000
00006FF40000
000007800000
000000000000
0005BFFA4000
007FFFFFF900
02FE4001AF40
0F9000000240
2E0000000000
780000000000
B40000000000
F00000000000
E00000000000
E00000000000
E00000000000
F00000000000
B40000000000
780000000000
2E0000000000
0F9000000240
02FE4001AF40
007FFFFFF900
0005BFFA4000
ENDCHAR
STARTCHAR ccaron
ENCODING 269
SWIDTH 869 0
DWIDTH 24 0
BBX 21 24 2 0
BITMAP
000640028000
0002E46E4000
00006FF40000
000007800000
000000000000
0005BFFA4000
007FFFFFF900
02FE4001AF40
0F9000000240
2E0000000000
780000000000
B40000000000
F00000000000
E00000000000
E00000000000
E00000000000
F00000000000
B40000000000
780000000000
2E0000000000
0F9000000240
02FE4001AF40
007FFFFFF900
0005BFFA4000
ENDCHAR
STARTCHAR Dcaron
ENCODING 270
SWIDTH 910 0
DWIDTH 25 0
BBX 21 24 3 0
BITMAP
064002800000
02E42F400000
002FF4000000
000680000000
000000000000
FFFFFFA40000
FFFFFFFF8000
F000005BF000
F0000000BC00
F00000002E00
F00000000F00
F00000000B40
F00000000780
F00000000380
F00000000380
F00000000780
F00000000780
F00000000B40
F00000000F00
F00000002E00
F0000000BC00
F000005BF400
FFFFFFFF8000
FFFFFFA40000
ENDCHAR
STARTCHAR dcaron
ENCODING 271
SWIDTH 910 0
DWIDTH 25 0
BBX 21 24 3 0
BITMAP
064002800000
02F42F400000
002FF4000000
000680000000
000000000000
FFFFFFA40000
FFFFFFFF8000
F000005BF000
F0000000BC00
F00000002E00
F00000000F00
F00000000B40
F00000000780
F00000000380
F00000000380
F00000000780
F00000000780
F00000000B40
F00000000F00
F00000002E00
F0000000BC00
F000005BF400
FFFFFFFF8000
FFFFFFA40000
ENDCHAR
STARTCHAR Dcroat
ENCODING 272
SWIDTH 910 0
DWIDTH 25 0
BBX 24 19 0 0
BITMAP
03FFFFFA9000
03FFFFFFFE00
03C00005BFC0
03C0000007F0
03C0000000B8
03C00000003C
03C00000002D
03C00000001E
03C00000001E
BFFFFF80000E
BFFFFF80000E
03C00000001E
03C00000002D
03C00000003C
03C0000000B8
03C0000002F0
03C000016FD0
03FFFFFFFE00
03FFFFFA9000
ENDCHAR
STARTCHAR dcroat
ENCODING 273
SWIDTH 910 0
DWIDTH 25 0
BBX 24 19 0 0
BITMAP
03FFFFFA9000
03FFFFFFFE00
03C00005BFC0
03C0000007F0
03C0000000B8
03C00000003C
03C00000002D
03C00000001E
03C00000001E
BFFFFF80000E
BFFFFF80000E
03C00000001E
03C00000002D
03C00000003C
03C0000000B8
03C0000002F0
03C000016FD0
03FFFFFFFE00
03FFFFFA9000
ENDCHAR
STARTCHAR Emacron
ENCODING 274
SWIDTH 754 0
DWIDTH 21 0
BBX 16 23 3 0
BITMAP
00FFFE00
00FFFE00
00000000
00000000
FFFFFFFE
FFFFFFFE
F0000000
F0000000
F0000000
F0000000
F0000000
F0000000
FFFFFFFC
FFFFFFFC
F0000000
F0000000
F0000000
F0000000
F0000000
F0000000
F0000000
FFFFFFFF
FFFFFFFF
ENDCHAR
STARTCHAR emacron
ENCODING 275
SWIDTH 910 0
DWIDTH 25 0
BBX 22 23 2 0
BITMAP
0003FFF80000
0003FFF80000
000000000000
000000000000
0006BFE90000
007FFFFFD000
02F94016F800
0B8000002E00
2D0000000B40
7800000002C0
B000000001D0
E000000000D0
FFFFFFFFFFE0
FFFFFFFFFFE0
E00000000000
F00000000000
B40000000000
7C0000000000
2E0000000000
0BD000000000
02FE50015A00
006FFFFFFF00
0005BFFEA400
ENDCHAR
STARTCHAR Ebreve
ENCODING 276
SWIDTH 754 0
DWIDTH 21 0
BBX 16 24 3 0
BITMAP
02C00740
00E41E00
002FE400
00000000
00000000
FFFFFFFE
FFFFFFFE
F0000000
F0000000
F0000000
F0000000
F0000000
F0000000
FFFFFFFC
FFFFFFFC
F0000000
F0000000
F0000000
F0000000
F0000000
F0000000
F0000000
FFFFFFFF
FFFFFFFF
ENDCHAR
STARTCHAR ebreve
ENCODING 277
SWIDTH 910 0
DWIDTH 25 0
BBX 22 24 2 0
BITMAP
000B001D0000
000390780000
0000BF900000
000000000000
000000000000
0006BFE90000
007FFFFFD000
02F94016F800
0B8000002E00
2D0000000B40
7800000002C0
B000000001D0
E000000000D0
FFFFFFFFFFE0
FFFFFFFFFFE0
E00000000000
F00000000000
B40000000000
7C0000000000
2E0000000000
0BD000000000
02FE50015A00
006FFFFFFF00
0005BFFEA400
ENDCHAR
STARTCHAR Edotaccent
ENCODING 278
SWIDTH 754 0
DWIDTH 21 0
BBX 16 23 3 0
BITMAP
0007C000
0007C000
00000000
00000000
FFFFFFFE
FFFFFFFE
F0000000
F0000000
F0000000
F0000000
F0000000
F0000000
FFFFFFFC
FFFFFFFC
F0000000
F0000000
F0000000
F0000000
F0000000
F0000000
F0000000
FFFFFFFF
FFFFFFFF
ENDCHAR
STARTCHAR edotaccent
ENCODING 279
SWIDTH 910 0
DWIDTH 25 0
BBX 22 23 2 0
BITMAP
00001F000000
00001F000000
000000000000
000000000000
0006BFE90000
007FFFFFD000
02F94016F800
0B8000002E00
2D0000000B40
7800000002C0
B000000001D0
E000000000D0
FFFFFFFFFFE0
FFFFFFFFFFE0
E00000000000
F00000000000
B40000000000
7C0000000000
2E0000000000
0BD000000000
02FE50015A00
006FFFFFFF00
0005BFFEA400
ENDCHAR
STARTCHAR Eogonek
ENCODING 280
SWIDTH 754 0
DWIDTH 21 0
BBX 16 24 3 -5
BITMAP
FFFFFFFE
FFFFFFFE
F0000000
F0000000
F0000000
F0000000
F0000000
F0000000
FFFFFFFC
FFFFFFFC
F0000000
F0000000
F0000000
F0000000
F0000000
F0000000
F0000000
FFFFFFFF
FFFFFFFF
000002E4
00000B40
00000E00
00000B06
000006F9
ENDCHAR
STARTCHAR eogonek
ENCODING 281
SWIDTH 910 0
DWIDTH 25 0
BBX 22 23 2 -4
BITMAP
0006BFE90000
007FFFFFD000
02F94016F800
0B8000002E00
2D0000000B40
7800000002C0
B000000001D0
E000000000D0
FFFFFFFFFFE0
FFFFFFFFFFE0
E00000000000
F00000000000
B40000000000
7C0000000000
2E0000000000
0BD000000000
02FE50015A00
006FFFFFFF00
0005BFFEB900
00000000E000
00000002C000
00000002D090
00000000BF40
ENDCHAR
STARTCHAR Ecaron
ENCODING 282
SWIDTH 754 0
DWIDTH 21 0
BBX 16 24 3 0
BITMAP
06400180
02F42F40
002FF400
00068000
00000000
FFFFFFFE
FFFFFFFE
F0000000
F0000000
F0000000
F0000000
F0000000
F0000000
FFFFFFFC
FFFFFFFC
F0000000
F0000000
F0000000
F0000000
F0000000
F0000000
F0000000
FFFFFFFF
FFFFFFFF
ENDCHAR
STARTCHAR ecaron
ENCODING 283
SWIDTH 910 0
DWIDTH 25 0
BBX 22 24 2 0
BITMAP
0019000A0000
000BD0BD0000
0000BFD00000
00001A000000
000000000000
0006BFE90000
007FFFFFD000
02F94016F800
0B8000002E00
2D0000000B40
7800000002C0
B000000001D0
E000000000D0
FFFFFFFFFFE0
FFFFFFFFFFE0
E00000000000
F00000000000
B40000000000
7C0000000000
2E0000000000
0BD000000000
02FE50015A00
006FFFFFFF00
0005BFFEA400
ENDCHAR
STARTCHAR Gcircumflex
ENCODING 284
SWIDTH 910 0
DWIDTH 25 0
BBX 22 24 2 0
BITMAP
000006800000
00002FF40000
0001F42F4000
000640018000
000000000000
0001AFFE9000
006FFFFFFE00
02FE50016F80
0BD000000180
2E0000000000
7C0000000000
B40000000000
F00000000000
E00000000000
E00000000000
E00000FFFFD0
F00000FFFFD0
B400000002D0
7C00000002D0
2E00000002D0
0BD0000002D0
02FE500056D0
006FFFFFFFC0
0001AFFFA400
ENDCHAR
STARTCHAR gcircumflex
ENCODING 285
SWIDTH 910 0
DWIDTH 25 0
BBX 22 24 2 0
BITMAP
000006800000
00002FF40000
0001F42F4000
000640018000
000000000000
0001AFFE9000
006FFFFFFE00
02FE50016F80
0BD000000180
2E0000000000
7C0000000000
B40000000000
F00000000000
E00000000000
E00000000000
E00000FFFFD0
F00000FFFFD0
B400000002D0
7C00000002D0
2E00000002D0
0BD0000002D0
02FE500056D0
006FFFFFFFC0
0001AFFFA400
ENDCHAR
STARTCHAR Gbreve
ENCODING 286
SWIDTH 910 0
DWIDTH 25 0
BBX 22 24 2 0
BITMAP
0002C0074000
0000E41E0000
00002FE40000
000000000000
000000000000
0001AFFE9000
006FFFFFFE00
02FE50016F80
0BD000000180
2E0000000000
7C0000000000
B40000000000
F00000000000
E00000000000
E00000000000
E00000FFFFD0
F00000FFFFD0
B400000002D0
7C00000002D0
2E00000002D0
0BD0000002D0
02FE500056D0
006FFFFFFFC0
0001AFFFA400
ENDCHAR
STARTCHAR gbreve
ENCODING 287
SWIDTH 910 0
DWIDTH 25 0
BBX 22 24 2 0
BITMAP
0002C0074000
0000E41E0000
00002FE40000
000000000000
000000000000
0001AFFE9000
006FFFFFFE00
02FE50016F80
0BD000000180
2E0000000000
7C0000000000
B40000000000
F00000000000
E00000000000
E00000000000
E00000FFFFD0
F00000FFFFD0
B400000002D0
7C00000002D0
2E00000002D0
0BD0000002D0
02FE500056D0
006FFFFFFFC0
0001AFFFA400
ENDCHAR
STARTCHAR Gdotaccent
ENCODING 288
SWIDTH 910 0
DWIDTH 25 0
BBX 22 23 2 0
BITMAP
000007C00000
000007C00000
000000000000
000000000000
0001AFFE9000
006FFFFFFE00
02FE50016F80
0BD000000180
2E0000000000
7C0000000000
B40000000000
F00000000000
E00000000000
E00000000000
E00000FFFFD0
F00000FFFFD0
B400000002D0
7C00000002D0
2E00000002D0
0BD0000002D0
02FE500056D0
006FFFFFFFC0
0001AFFFA400
ENDCHAR
STARTCHAR gdotaccent
ENCODING 289
SWIDTH 910 0
DWIDTH 25 0
BBX 22 23 2 0
BITMAP
000007C00000
000007C00000
000000000000
000000000000
0001AFFE9000
006FFFFFFE00
02FE50016F80
0BD000000180
2E0000000000
7C0000000000
B40000000000
F00000000000
E00000000000
E00000000000
E00000FFFFD0
F00000FFFFD0
B400000002D0
7C00000002D0
2E00000002D0
0BD0000002D0
02FE500056D0
006FFFFFFFC0
0001AFFFA400
ENDCHAR
STARTCHAR Gcommaaccent
ENCODING 290
SWIDTH 910 0
DWIDTH 25 0
BBX 22 25 2 -6
BITMAP
0001AFFE9000
006FFFFFFE00
02FE50016F80
0BD000000180
2E0000000000
7C0000000000
B40000000000
F00000000000
E00000000000
E00000000000
E00000FFFFD0
F00000FFFFD0
B400000002D0
7C00000002D0
2E00000002D0
0BD0000002D0
02FE500056D0
006FFFFFFFC0
0001AFFFA400
000000000000
000000000000
000002D00000
000002C00000
000003800000
000003400000
ENDCHAR
STARTCHAR gcommaaccent
ENCODING 291
SWIDTH 910 0
DWIDTH 25 0
BBX 22 25 2 -6
BITMAP
0001AFFE9000
006FFFFFFE00
02FE50016F80
0BD000000180
2E0000000000
7C0000000000
B40000000000
F00000000000
E00000000000
E00000000000
E00000FFFFD0
F00000FFFFD0
B400000002D0
7C00000002D0
2E00000002D0
0BD0000002D0
02FE500056D0
006FFFFFFFC0
0001AFFFA400
000000000000
000000000000
000002D00000
000002C00000
000003800000
000003400000
ENDCHAR
STARTCHAR Hcircumflex
ENCODING 292
SWIDTH 949 0
DWIDTH 27 0
BBX 21 24 3 0
BITMAP
00002D000000
0001FF900000
001B91B80000
002800190000
000000000000
F00000000740
F00000000740
F00000000740
F00000000740
F00000000740
F00000000740
F00000000740
F00000000740
FFFFFFFFFF40
FFFFFFFFFF40
F00000000740
F00000000740
F00000000740
F00000000740
F00000000740
F00000000740
F00000000740
F00000000740
F00000000740
ENDCHAR
STARTCHAR hcircumflex
ENCODING 293
SWIDTH 949 0
DWIDTH 27 0
BBX 21 24 3 0
BITMAP
00002D000000
0001FF900000
001B91B80000
002800190000
000000000000
F00000000740
F00000000740
F00000000740
F00000000740
F00000000740
F00000000740
F00000000740
F00000000740
FFFFFFFFFF40
FFFFFFFFFF40
F00000000740
F00000000740
F00000000740
F00000000740
F00000000740
F00000000740
F00000000740
F00000000740
F00000000740
ENDCHAR
STARTCHAR Hbar
ENCODING 294
SWIDTH 949 0
DWIDTH 27 0
BBX 26 19 0 0
BITMAP
03C00000001D00
03C00000001D00
03C00000001D00
03C00000001D00
7FFFFFFFFFFFE0
7FFFFFFFFFFFE0
03C00000001D00
03C00000001D00
03FFFFFFFFFD00
03FFFFFFFFFD00
03C00000001D00
03C00000001D00
03C00000001D00
03C00000001D00
03C00000001D00
03C00000001D00
03C00000001D00
03C00000001D00
03C00000001D00
ENDCHAR
STARTCHAR hbar
ENCODING 295
SWIDTH 949 0
DWIDTH 27 0
BBX 26 19 0 0
BITMAP
03C00000001D00
03C00000001D00
03C00000001D00
03C00000001D00
7FFFFFFFFFFFE0
7FFFFFFFFFFFE0
03C00000001D00
03C00000001D00
03FFFFFFFFFD00
03FFFFFFFFFD00
03C00000001D00
03C00000001D00
03C00000001D00
03C00000001D00
03C00000001D00
03C00000001D00
03C00000001D00
03C00000001D00
03C00000001D00
ENDCHAR
STARTCHAR Itilde
ENCODING 296
SWIDTH 287 0
DWIDTH 8 0
BBX 10 24 -1 0
BITMAP
2F4060
71A490
A01F80
000000
000000
00F000
00F000
00F000
00F000
00F000
00F000
00F000
00F000
00F000
00F000
00F000
00F000
00F000
00F000
00F000
00F000
00F000
00F000
00F000
ENDCHAR
STARTCHAR itilde
ENCODING 297
SWIDTH 287 0
DWIDTH 8 0
BBX 10 24 -1 0
BITMAP
2F4060
71A4A0
A01F80
000000
000000
00F000
00F000
00F000
00F000
00F000
00F000
00F000
00F000
00F000
00F000
00F000
00F000
00F000
00F000
00F000
00F000
00F000
00F000
00F000
ENDCHAR
STARTCHAR Imacron
ENCODING 298
SWIDTH 287 0
DWIDTH 8 0
BBX 8 23 0 0
BITMAP
BFFE
BFFE
0000
0000
03C0
03C0
03C0
03C0
03C0
03C0
03C0
03C0
03C0
03C0
03C0
03C0
03C0
03C0
03C0
03C0
03C0
03C0
03C0
ENDCHAR
STARTCHAR imacron
ENCODING 299
SWIDTH 287 0
DWIDTH 8 0
BBX 8 23 0 0
BITMAP
BFFE
BFFE
0000
0000
03C0
03C0
03C0
03C0
03C0
03C0
03C0
03C0
03C0
03C0
03C0
03C0
03C0
03C0
03C0
03C0
03C0
03C0
03C0
ENDCHAR
STARTCHAR Ibreve
ENCODING 300
SWIDTH 287 0
DWIDTH 8 0
BBX 10 24 -1 0
BITMAP
B000E0
2D0780
0BFE00
000000
000000
00F000
00F000
00F000
00F000
00F000
00F000
00F000
00F000
00F000
00F000
00F000
00F000
00F000
00F000
00F000
00F000
00F000
00F000
00F000
ENDCHAR
STARTCHAR ibreve
ENCODING 301
SWIDTH 287 0
DWIDTH 8 0
BBX 10 24 -1 0
BITMAP
7400E0
2D07C0
06FE00
000000
000000
00F000
00F000
00F000
00F000
00F000
00F000
00F000
00F000
00F000
00F000
00F000
00F000
00F000
00F000
00F000
00F000
00F000
00F000
00F000
ENDCHAR
STARTCHAR Iogonek
ENCODING 302
SWIDTH 287 0
DWIDTH 8 0
BBX 7 24 0 -5
BITMAP
03C0
03C0
03C0
03C0
03C0
03C0
03C0
03C0
03C0
03C0
03C0
03C0
03C0
03C0
03C0
03C0
03C0
03C0
03C0
0A00
3800
7400
7818
1FE0
ENDCHAR
STARTCHAR iogonek
ENCODING 303
SWIDTH 287 0
DWIDTH 8 0
BBX 7 24 0 -5
BITMAP
03C0
03C0
03C0
03C0
03C0
03C0
03C0
03C0
03C0
03C0
03C0
03C0
03C0
03C0
03C0
03C0
03C0
03C0
03C0
0A00
3800
7400
7818
1FE0
ENDCHAR
STARTCHAR Idotaccent
ENCODING 304
SWIDTH 287 0
DWIDTH 8 0
BBX 2 23 3 0
BITMAP
F0
F0
00
00
F0
F0
F0
F0
F0
F0
F0
F0
F0
F0
F0
F0
F0
F0
F0
F0
F0
F0
F0
ENDCHAR
STARTCHAR dotlessi
ENCODING 305
SWIDTH 287 0
DWIDTH 8 0
BBX 2 19 3 0
BITMAP
F0
F0
F0
F0
F0
F0
F0
F0
F0
F0
F0
F0
F0
F0
F0
F0
F0
F0
F0
ENDCHAR
STARTCHAR IJ
ENCODING 306
SWIDTH 877 0
DWIDTH 25 0
BBX 19 19 3 0
BITMAP
F000000078
F000000078
F000000078
F000000078
F000000078
F000000078
F000000078
F000000078
F000000078
F000000078
F000000078
F000000078
F000000078
F000000074
F0000000B4
F0000001F0
F029401BD0
F03FFFFF40
F006BFE400
ENDCHAR
STARTCHAR ij
ENCODING 307
SWIDTH 877 0
DWIDTH 25 0
BBX 19 19 3 0
BITMAP
F000000078
F000000078
F000000078
F000000078
F000000078
F000000078
F000000078
F000000078
F000000078
F000000078
F000000078
F000000078
F000000078
F000000074
F0000000B4
F0000001F0
F029401BD0
F03FFFFF40
F006BFE400
ENDCHAR
STARTCHAR Jcircumflex
ENCODING 308
SWIDTH 590 0
DWIDTH 17 0
BBX 18 24 0 0
BITMAP
000001E000
00001BFD00
0000B91B90
00019000A0
0000000000
000001D000
000001D000
000001D000
000001D000
000001D000
000001D000
000001D000
000001D000
000001D000
000001D000
000001D000
000001D000
000001D000
000001D000
000002D000
000007C000
E5006F4000
FFFFFD0000
1AFF900000
ENDCHAR
STARTCHAR jcircumflex
ENCODING 309
SWIDTH 590 0
DWIDTH 17 0
BBX 18 24 0 0
BITMAP
000001E000
00001BFD00
0000B91B90
00019000A0
0000000000
000001D000
000001D000
000001D000
000001D000
000001D000
000001D000
000001D000
000001D000
000001D000
000001D000
000001D000
000001D000
000001D000
000001D000
000002D000
000007C000
E5006F4000
FFFFFD0000
1AFF900000
ENDCHAR
STARTCHAR Kcommaaccent
ENCODING 310
SWIDTH 806 0
DWIDTH 23 0
BBX 19 25 3 -6
BITMAP
F0000002D0
F000001E40
F00001B400
F0000B9000
F0007D0000
F002E00000
F01F400000
F0B8000000
F7D0000000
FBD0000000
F1F8000000
F02E400000
F007D00000
F000B90000
F0001F4000
F00006E000
F00000BD00
F000001B80
F0000002F4
0000000000
0000000000
0002D00000
0002C00000
0002800000
0003800000
ENDCHAR
STARTCHAR kcommaaccent
ENCODING 311
SWIDTH 867 0
DWIDTH 24 0
BBX 20 25 3 -6
BITMAP
F000000074
F0000000B0
F0000001E0
F0000002C0
F000000B40
F000006E00
F00006F400
F005BF8000
FFFFE40000
FFFFFE4000
F0016FE400
F00001BE00
F000001F80
F0000002E0
F0000000F4
F000000078
F00000003C
F00000001D
F00000001D
0000000000
0000000000
0000B40000
0000B00000
0000E00000
0000D00000
ENDCHAR
STARTCHAR kgreenlandic
ENCODING 312
SWIDTH 867 0
DWIDTH 24 0
BBX 20 19 3 0
BITMAP
F000000074
F0000000B0
F0000001E0
F0000002C0
F000000B40
F000006E00
F00006F400
F005BF8000
FFFFE40000
FFFFFE4000
F0016FE400
F00001BE00
F000001F80
F0000002E0
F0000000F4
F000000078
F00000003C
F00000001D
F00000001D
ENDCHAR
STARTCHAR Lacute
ENCODING 313
SWIDTH 701 0
DWIDTH 20 0
BBX 17 24 2 0
BITMAP
0024000000
02F8000000
2F40000000
6400000000
0000000000
3C00000000
3C00000000
3C00000000
3C00000000
3C00000000
3C00000000
3C00000000
3C00000000
3C00000000
3C00000000
3C00000000
3C00000000
3C00000000
3C00000000
3C00000000
3C00000000
3C00000000
3FFFFFFF80
3FFFFFFF80
ENDCHAR
STARTCHAR lacute
ENCODING 314
SWIDTH 709 0
DWIDTH 20 0
BBX 18 24 2 0
BITMAP
0024000000
02F8000000
2F40000000
6400000000
0000000000
3C00000000
3C00000000
3C00000000
3C00000000
3C00000000
3C00000000
3C00000000
3C00000000
3C00000000
3C00000000
3C00000000
3C00000000
3C00000000
2C00000000
2C00000000
1E00000000
0F94000000
07FFFFFFE0
006FFFFFE0
ENDCHAR
STARTCHAR Lcommaaccent
ENCODING 315
SWIDTH 701 0
DWIDTH 20 0
BBX 16 25 3 -6
BITMAP
F0000000
F0000000
F0000000
F0000000
F0000000
F0000000
F0000000
F0000000
F0000000
F0000000
F0000000
F0000000
F0000000
F0000000
F0000000
F0000000
F0000000
FFFFFFFE
FFFFFFFE
00000000
00000000
0002C000
00038000
00038000
00074000
ENDCHAR
STARTCHAR lcommaaccent
ENCODING 316
SWIDTH 709 0
DWIDTH 20 0
BBX 17 25 3 -6
BITMAP
F000000000
F000000000
F000000000
F000000000
F000000000
F000000000
F000000000
F000000000
F000000000
F000000000
F000000000
F000000000
F000000000
B000000000
B000000000
7800000000
3E50000000
1FFFFFFF80
01BFFFFF80
0000000000
0000000000
0001E00000
0001D00000
0001C00000
0002800000
ENDCHAR
STARTCHAR Lcaron
ENCODING 317
SWIDTH 701 0
DWIDTH 20 0
BBX 16 19 3 0
BITMAP
F0000E00
F0001D00
F0001D00
F0002C00
F0003800
F0000000
F0000000
F0000000
F0000000
F0000000
F0000000
F0000000
F0000000
F0000000
F0000000
F0000000
F0000000
FFFFFFFE
FFFFFFFE
ENDCHAR
STARTCHAR lcaron
ENCODING 318
SWIDTH 709 0
DWIDTH 20 0
BBX 17 19 3 0
BITMAP
F0000E0000
F0001E0000
F0001D0000
F0002C0000
F000280000
F000000000
F000000000
F000000000
F000000000
F000000000
F000000000
F000000000
F000000000
B000000000
B000000000
7800000000
3E50000000
1FFFFFFF80
01BFFFFF80
ENDCHAR
STARTCHAR Ldot
ENCODING 319
SWIDTH 701 0
DWIDTH 20 0
BBX 16 19 3 0
BITMAP
F0000000
F0000000
F0000000
F0000000
F0000000
F0000000
F0000000
F0000000
F0001F00
F0001F00
F0001F00
F0000000
F0000000
F0000000
F0000000
F0000000
F0000000
FFFFFFFE
FFFFFFFE
ENDCHAR
STARTCHAR ldotaccent
ENCODING 320
SWIDTH 709 0
DWIDTH 20 0
BBX 17 19 3 0
BITMAP
F000000000
F000000000
F000000000
F000000000
F000000000
F000000000
F000000000
F000000000
F0000F4000
F0000F4000
F0000F4000
F000000000
F000000000
B000000000
B000000000
7800000000
3E50000000
1FFFFFFF80
01BFFFFF80
ENDCHAR
STARTCHAR Lslash
ENCODING 321
SWIDTH 701 0
DWIDTH 20 0
BBX 19 19 0 0
BITMAP
03C0000000
03C0000000
03C0000000
03C0000000
03C0000000
03C0000000
03C0640000
03C6E40000
03FE400000
07E4000000
BFC0000000
A3C0000000
03C0000000
03C0000000
03C0000000
03C0000000
03C0000000
03FFFFFFF8
03FFFFFFF8
ENDCHAR
STARTCHAR lslash
ENCODING 322
SWIDTH 709 0
DWIDTH 20 0
BBX 20 19 0 0
BITMAP
03C0000000
03C0000000
03C0000000
03C0000000
03C0000000
03C0000000
03C0640000
03C6E40000
03FE400000
07E4000000
BFC0000000
A3C0000000
03C0000000
02C0000000
02C0000000
01E0000000
00F9400000
007FFFFFFE
0006FFFFFE
ENDCHAR
STARTCHAR Nacute
ENCODING 323
SWIDTH 936 0
DWIDTH 26 0
BBX 20 24 3 0
BITMAP
0000002400
000002F800
00002F4000
0000640000
0000000000
F80000000B
FE0000000B
FB4000000B
F2D000000B
F0F400000B
F03D00000B
F00F40000B
F003D0000B
F000F4000B
F0003D000B
F0001F400B
F00007D00B
F00001F40B
F000007D0B
F000001F4B
F0000007DB
F0000001FB
F00000007F
F00000001F
ENDCHAR
STARTCHAR nacute
ENCODING 324
SWIDTH 933 0
DWIDTH 26 0
BBX 20 24 3 0
BITMAP
0000006400
000006F400
00006E4000
0000A40000
0000000000
F0006FFE40
F01BFFFFE0
F1BF9005F8
FBE400002D
FE4000000E
F40000000B
F00000000B
F00000000B
F00000000B
F00000000B
F00000000B
F00000000B
F00000000B
F00000000B
F00000000B
F00000000B
F00000000B
F00000000B
F00000000B
ENDCHAR
STARTCHAR Ncommaaccent
ENCODING 325
SWIDTH 936 0
DWIDTH 26 0
BBX 20 25 3 -6
BITMAP
F80000000B
FE0000000B
FB4000000B
F2D000000B
F0F400000B
F03D00000B
F00F40000B
F003D0000B
F000F4000B
F0003D000B
F0001F400B
F00007D00B
F00001F40B
F000007D0B
F000001F4B
F0000007DB
F0000001FB
F00000007F
F00000001F
0000000000
0000000000
00002D0000
00002C0000
0000380000
0000340000
ENDCHAR
STARTCHAR ncommaaccent
ENCODING 326
SWIDTH 933 0
DWIDTH 26 0
BBX 20 25 3 -6
BITMAP
F0006FFE40
F01BFFFFE0
F1BF9005F8
FBE400002D
FE4000000E
F40000000B
F00000000B
F00000000B
F00000000B
F00000000B
F00000000B
F00000000B
F00000000B
F00000000B
F00000000B
F00000000B
F00000000B
F00000000B
F00000000B
0000000000
0000000000
00002C0000
00003C0000
0000380000
0000340000
ENDCHAR
STARTCHAR Ncaron
ENCODING 327
SWIDTH 936 0
DWIDTH 26 0
BBX 20 24 3 0
BITMAP
0024001800
001F81F400
0002FF8000
0000290000
0000000000
F80000000B
FE0000000B
FB4000000B
F2D000000B
F0F400000B
F03D00000B
F00F40000B
F003D0000B
F000F4000B
F0003D000B
F0001F400B
F00007D00B
F00001F40B
F000007D0B
F000001F4B
F0000007DB
F0000001FB
F00000007F
F00000001F
ENDCHAR
STARTCHAR ncaron
ENCODING 328
SWIDTH 933 0
DWIDTH 26 0
BBX 20 24 3 0
BITMAP
0064002800
002F42F400
0002FF4000
0000680000
0000000000
F0006FFE40
F01BFFFFE0
F1BF9005F8
FBE400002D
FE4000000E
F40000000B
F00000000B
F00000000B
F00000000B
F00000000B
F00000000B
F00000000B
F00000000B
F00000000B
F00000000B
F00000000B
F00000000B
F00000000B
F00000000B
ENDCHAR
STARTCHAR napostrophe
ENCODING 329
SWIDTH 1025 0
DWIDTH 29 0
BBX 26 19 0 0
BITMAP
381D001AFF9000
741D01FFFFFD00
B01D1FE5006F40
B01EFE000007C0
E01FE0000002D0
001F40000001E0
001D00000000E0
001D00000000E0
001D00000000E0
001D00000000E0
001D00000000E0
001D00000000E0
001D00000000E0
001D00000000E0
001D00000000E0
001D00000000E0
001D00000000E0
001D00000000E0
001D00000000E0
ENDCHAR
STARTCHAR Eng
ENCODING 330
SWIDTH 936 0
DWIDTH 26 0
BBX 20 19 3 0
BITMAP
F80000000B
FF0000000B
F7D000000B
F0F800000B
F02E00000B
F007D0000B
F001F8000B
F0002E000B
F00007D00B
F00001F40B
F000002E0B
F000000BDB
F0000001FF
F00000002F
F00000000F
F00000002E
F0019401BC
F001FFFFF4
F0006BFE40
ENDCHAR
STARTCHAR eng
ENCODING 331
SWIDTH 933 0
DWIDTH 26 0
BBX 20 19 3 0
BITMAP
F0006FFE40
F01BFFFFE0
F1BF9005B8
FBE400002D
FE4000000E
F40000000B
F00000000B
F00000000B
F00000000B
F00000000B
F00000000B
F00000000B
F00000000B
F00000000B
F00000000F
F00000002E
F000A401BC
F000FFFFF4
F0005BFE40
ENDCHAR
STARTCHAR Omacron
ENCODING 332
SWIDTH 983 0
DWIDTH 28 0
BBX 24 23 2 0
BITMAP
0000FFFE0000
0000FFFE0000
000000000000
000000000000
0006AFFA4000
007FFFFFF800
02F94005BF40
0F90000007E0
2E00000000F4
78000000007C
B4000000002D
F0000000001D
E0000000000E
E0000000000E
E0000000000E
F0000000001D
B4000000002D
78000000007C
2E00000000F4
0F90000007E0
02F94005BF40
007FFFFFF900
0006BFFA4000
ENDCHAR
STARTCHAR omacron
ENCODING 333
SWIDTH 983 0
DWIDTH 28 0
BBX 24 23 2 0
BITMAP
0000FFFE0000
0000FFFE0000
000000000000
000000000000
0006AFFA4000
007FFFFFF800
02F94005BF40
0F90000007E0
2E00000000F4
78000000007C
B4000000002D
F0000000001D
E0000000000E
E0000000000E
E0000000000E
F0000000001D
B4000000002D
78000000007C
2E00000000F4
0F90000007E0
02F94005BF40
007FFFFFF900
0006BFFA4000
ENDCHAR
STARTCHAR Obreve
ENCODING 334
SWIDTH 983 0
DWIDTH 28 0
BBX 24 24 2 0
BITMAP
0002C0074000
0000E41E0000
00002FE40000
000000000000
000000000000
0006AFFA4000
007FFFFFF800
02F94005BF40
0F90000007E0
2E00000000F4
78000000007C
B4000000002D
F0000000001D
E0000000000E
E0000000000E
E0000000000E
F0000000001D
B4000000002D
78000000007C
2E00000000F4
0F90000007E0
02F94005BF40
007FFFFFF900
0006BFFA4000
ENDCHAR
STARTCHAR obreve
ENCODING 335
SWIDTH 983 0
DWIDTH 28 0
BBX 24 24 2 0
BITMAP
0002C0074000
0000E41E0000
00002FE40000
000000000000
000000000000
0006AFFA4000
007FFFFFF800
02F94005BF40
0F90000007E0
2E00000000F4
78000000007C
B4000000002D
F0000000001D
E0000000000E
E0000000000E
E0000000000E
F0000000001D
B4000000002D
78000000007C
2E00000000F4
0F90000007E0
02F94005BF40
007FFFFFF900
0006BFFA4000
ENDCHAR
STARTCHAR Ohungarumlaut
ENCODING 336
SWIDTH 983 0
DWIDTH 28 0
BBX 24 24 2 0
BITMAP
000002408000
00001F47D000
0000792E0000
000090240000
000000000000
0006AFFA4000
007FFFFFF800
02F94005BF40
0F90000007E0
2E00000000F4
78000000007C
B4000000002D
F0000000001D
E0000000000E
E0000000000E
E0000000000E
F0000000001D
B4000000002D
78000000007C
2E00000000F4
0F90000007E0
02F94005BF40
007FFFFFF900
0006BFFA4000
ENDCHAR
STARTCHAR ohungarumlaut
ENCODING 337
SWIDTH 983 0
DWIDTH 28 0
BBX 24 24 2 0
BITMAP
000002408000
00001F47D000
0000792E0000
000090240000
000000000000
0006AFFA4000
007FFFFFF800
02F94005BF40
0F90000007E0
2E00000000F4
78000000007C
B4000000002D
F0000000001D
E0000000000E
E0000000000E
E0000000000E
F0000000001D
B4000000002D
78000000007C
2E00000000F4
0F90000007E0
02F94005BF40
007FFFFFF900
0006BFFA4000
ENDCHAR
STARTCHAR OE
ENCODING 338
SWIDTH 1338 0
DWIDTH 37 0
BBX 34 19 2 0
BITMAP
0006AFFFFFFFFFFFD0
007FFFFFFFFFFFFFD0
02F940016D00000000
0F9000001D00000000
2E0000001D00000000
780000001D00000000
B40000001D00000000
F00000001D00000000
E00000001FFFFFFF40
E00000001FFFFFFF40
E00000001D00000000
F00000001D00000000
B40000001D00000000
780000001D00000000
2E0000001D00000000
0F9000001D00000000
03F940016D00000000
007FFFFFFFFFFFFFD0
0006BFFFFFFFFFFFD0
ENDCHAR
STARTCHAR oe
ENCODING 339
SWIDTH 1688 0
DWIDTH 47 0
BBX 44 19 2 0
BITMAP
0006AFFA4000006BFE9000
007FFFFFF90007FFFFFD00
02F94005BF802F94016F80
0F90000007E0B8000002E0
2E00000000F6E0000000B4
78000000007F800000002C
B4000000002F000000001D
F0000000001E000000000E
E0000000000FFFFFFFFFFE
E0000000000FFFFFFFFFFE
E0000000000E0000000000
F0000000001F0000000000
B4000000002F4000000000
78000000007FC000000000
2E00000000F6E000000000
0F90000007E0BD00000000
02F94005BF802FE50005A4
007FFFFFF90006FFFFFFF4
0006BFFA4000005BFFFA40
ENDCHAR
STARTCHAR Racute
ENCODING 340
SWIDTH 833 0
DWIDTH 23 0
BBX 19 24 3 0
BITMAP
0000060000
00007F4000
0007E40000
000A000000
0000000000
FFFFFFA400
FFFFFFFE00
F000006F80
F0000002D0
F0000001D0
F0000001E0
F0000001D0
F0000002D0
F000005F80
FFFFFFFE00
FFFFFFE400
F00001D000
F00000B400
F000003C00
F000001E00
F000000780
F0000002D0
F0000000F4
F00000007C
ENDCHAR
STARTCHAR racute
ENCODING 341
SWIDTH 609 0
DWIDTH 17 0
BBX 14 24 3 0
BITMAP
00002800
0002F800
002F8000
00240000
00000000
F001BFE0
F01FFFF0
F1BE4010
F7E00000
FF400000
F8000000
F0000000
F0000000
F0000000
F0000000
F0000000
F0000000
F0000000
F0000000
F0000000
F0000000
F0000000
F0000000
F0000000
ENDCHAR
STARTCHAR Rcommaaccent
ENCODING 342
SWIDTH 833 0
DWIDTH 23 0
BBX 19 25 3 -6
BITMAP
FFFFFFA400
FFFFFFFE00
F000006F80
F0000002D0
F0000001D0
F0000001E0
F0000001D0
F0000002D0
F000005F80
FFFFFFFE00
FFFFFFE400
F00001D000
F00000B400
F000003C00
F000001E00
F000000780
F0000002D0
F0000000F4
F00000007C
0000000000
0000000000
0000E00000
0001D00000
0001D00000
0002C00000
ENDCHAR
STARTCHAR rcommaaccent
ENCODING 343
SWIDTH 609 0
DWIDTH 17 0
BBX 14 25 3 -6
BITMAP
F001BFE0
F01FFFF0
F1BE4010
F7E00000
FF400000
F8000000
F0000000
F0000000
F0000000
F0000000
F0000000
F0000000
F0000000
F0000000
F0000000
F0000000
F0000000
F0000000
F0000000
00000000
00000000
B0000000
F0000000
E0000000
D0000000
ENDCHAR
STARTCHAR Rcaron
ENCODING 344
SWIDTH 833 0
DWIDTH 23 0
BBX 19 24 3 0
BITMAP
0640028000
02E46E4000
006FF40000
0007800000
0000000000
FFFFFFA400
FFFFFFFE00
F000006F80
F0000002D0
F0000001D0
F0000001E0
F0000001D0
F0000002D0
F000005F80
FFFFFFFE00
FFFFFFE400
F00001D000
F00000B400
F000003C00
F000001E00
F000000780
F0000002D0
F0000000F4
F00000007C
ENDCHAR
STARTCHAR rcaron
ENCODING 345
SWIDTH 609 0
DWIDTH 17 0
BBX 14 24 3 0
BITMAP
28001900
1B91B800
01FF9000
002D0000
00000000
F001BFE0
F01FFFF0
F1BE4010
F7E00000
FF400000
F8000000
F0000000
F0000000
F0000000
F0000000
F0000000
F0000000
F0000000
F0000000
F0000000
F0000000
F0000000
F0000000
F0000000
ENDCHAR
STARTCHAR Sacute
ENCODING 346
SWIDTH 787 0
DWIDTH 22 0
BBX 18 24 2 0
BITMAP
0000019000
00001BD000
0001B90000
0002900000
0000000000
006FFFA500
0BFFFFFF40
3F50005A40
B800000000
B000000000
B400000000
7D00000000
1FE4000000
02FFE40000
001BFFD000
00001BFE00
0000001FC0
00000002E0
00000000F0
00000000F0
00000002E0
A540006FC0
BFFFFFFE00
16BFFE9000
ENDCHAR
STARTCHAR sacute
ENCODING 347
SWIDTH 787 0
DWIDTH 22 0
BBX 18 24 2 0
BITMAP
0000019000
00001BD000
0001B90000
0002900000
0000000000
006FFFA500
0BFFFFFF40
3F50005A40
B800000000
B000000000
B400000000
7D00000000
1FE4000000
02FFE40000
001BFFD000
00001BFE00
0000001FC0
00000002E0
00000000F0
00000000F0
00000002E0
A540006FC0
BFFFFFFE00
16BFFE9000
ENDCHAR
STARTCHAR Scircumflex
ENCODING 348
SWIDTH 787 0
DWIDTH 22 0
BBX 18 24 2 0
BITMAP
0001A00000
000BFD0000
00BD0BD000
0190006000
0000000000
006FFFA500
0BFFFFFF40
3F50005A40
B800000000
B000000000
B400000000
7D00000000
1FE4000000
02FFE40000
001BFFD000
00001BFE00
0000001FC0
00000002E0
00000000F0
00000000F0
00000002E0
A540006FC0
BFFFFFFE00
16BFFE9000
ENDCHAR
STARTCHAR scircumflex
ENCODING 349
SWIDTH 787 0
DWIDTH 22 0
BBX 18 24 2 0
BITMAP
0001A00000
000BFD0000
00BD0BD000
0190006000
0000000000
006FFFA500
0BFFFFFF40
3F50005A40
B800000000
B000000000
B400000000
7D00000000
1FE4000000
02FFE40000
001BFFD000
00001BFE00
0000001FC0
00000002E0
00000000F0
00000000F0
00000002E0
A540006FC0
BFFFFFFE00
16BFFE9000
ENDCHAR
STARTCHAR Scedilla
ENCODING 350
SWIDTH 787 0
DWIDTH 22 0
BBX 18 24 2 -5
BITMAP
006FFFA500
0BFFFFFF40
3F90005A40
B800000000
B000000000
B400000000
7D00000000
1F90000000
02FF900000
001BFF9000
00001BFD00
0000001F80
00000002D0
00000000F0
00000000F0
00000002E0
A540006FC0
BFFFFFFE00
16BFFF9000
0000900000
0001FD0000
00000B0000
00090B0000
0006F90000
ENDCHAR
STARTCHAR scedilla
ENCODING 351
SWIDTH 787 0
DWIDTH 22 0
BBX 18 24 2 -5
BITMAP
006FFFA500
0BFFFFFF40
3F90005A40
B800000000
B000000000
B400000000
7D00000000
1F90000000
02FF900000
001BFF9000
00001BFD00
0000001F80
00000002D0
00000000F0
00000000F0
00000002E0
A540006FC0
BFFFFFFE00
16BFFF9000
0000900000
0001FD0000
00000B0000
00090B0000
0006F90000
ENDCHAR
STARTCHAR Scaron
ENCODING 352
SWIDTH 787 0
DWIDTH 22 0
BBX 18 24 2 0
BITMAP
0190006000
00BD0BD000
000BFD0000
0001A00000
0000000000
006FFFA500
0BFFFFFF40
3F50005A40
B800000000
B000000000
B400000000
7D00000000
1FE4000000
02FFE40000
001BFFD000
00001BFE00
0000001FC0
00000002E0
00000000F0
00000000F0
00000002E0
A540006FC0
BFFFFFFE00
16BFFE9000
ENDCHAR
STARTCHAR scaron
ENCODING 353
SWIDTH 787 0
DWIDTH 22 0
BBX 18 24 2 0
BITMAP
0190006000
00BD0BD000
000BFD0000
0001A00000
0000000000
006FFFA500
0BFFFFFF40
3F50005A40
B800000000
B000000000
B400000000
7D00000000
1FE4000000
02FFE40000
001BFFD000
00001BFE00
0000001FC0
00000002E0
00000000F0
00000000F0
00000002E0
A540006FC0
BFFFFFFE00
16BFFE9000
ENDCHAR
STARTCHAR Tcommaaccent
ENCODING 354
SWIDTH 708 0
DWIDTH 20 0
BBX 20 25 0 -6
BITMAP
7FFFFFFFFD
7FFFFFFFFD
0000380000
0000380000
0000380000
0000380000
0000380000
0000380000
0000380000
0000380000
0000380000
0000380000
0000380000
0000380000
0000380000
0000380000
0000380000
0000380000
0000380000
0000000000
0000000000
00003C0000
0000380000
0000340000
0000700000
ENDCHAR
STARTCHAR tcommaaccent
ENCODING 355
SWIDTH 708 0
DWIDTH 20 0
BBX 20 25 0 -6
BITMAP
7FFFFFFFFD
7FFFFFFFFD
0000380000
0000380000
0000380000
0000380000
0000380000
0000380000
0000380000
0000380000
0000380000
0000380000
0000380000
0000380000
0000380000
0000380000
0000380000
0000380000
0000380000
0000000000
0000000000
00003C0000
0000380000
0000340000
0000700000
ENDCHAR
STARTCHAR Tcaron
ENCODING 356
SWIDTH 708 0
DWIDTH 20 0
BBX 20 24 0 0
BITMAP
0024001800
001F42F400
0002FF8000
0000680000
0000000000
7FFFFFFFFD
7FFFFFFFFD
0000380000
0000380000
0000380000
0000380000
0000380000
0000380000
0000380000
0000380000
0000380000
0000380000
0000380000
0000380000
0000380000
0000380000
0000380000
0000380000
0000380000
ENDCHAR
STARTCHAR tcaron
ENCODING 357
SWIDTH 708 0
DWIDTH 20 0
BBX 20 24 0 0
BITMAP
0024001800
001F42F400
0002FF8000
0000680000
0000000000
7FFFFFFFFD
7FFFFFFFFD
0000380000
0000380000
0000380000
0000380000
0000380000
0000380000
0000380000
0000380000
0000380000
0000380000
0000380000
0000380000
0000380000
0000380000
0000380000
0000380000
0000380000
ENDCHAR
STARTCHAR Tbar
ENCODING 358
SWIDTH 708 0
DWIDTH 20 0
BBX 20 19 0 0
BITMAP
7FFFFFFFFD
7FFFFFFFFD
0000380000
0000380000
0000380000
0000380000
0000380000
0BFFFFFFD0
0BFFFFFFD0
0000380000
0000380000
0000380000
0000380000
0000380000
0000380000
0000380000
0000380000
0000380000
0000380000
ENDCHAR
STARTCHAR tbar
ENCODING 359
SWIDTH 708 0
DWIDTH 20 0
BBX 20 19 0 0
BITMAP
7FFFFFFFFD
7FFFFFFFFD
0000380000
0000380000
0000380000
0000380000
0000380000
0BFFFFFFD0
0BFFFFFFD0
0000380000
0000380000
0000380000
0000380000
0000380000
0000380000
0000380000
0000380000
0000380000
0000380000
ENDCHAR
STARTCHAR Utilde
ENCODING 360
SWIDTH 891 0
DWIDTH 25 0
BBX 19 24 3 0
BITMAP
001F803400
0034B47000
00700BD000
0000000000
0000000000
E00000002C
E00000002C
E00000002C
E00000002C
E00000002C
E00000002C
E00000002C
E00000002C
E00000002C
E00000002C
E00000002C
E00000002C
E00000002C
F00000003C
B400000078
7D000002F4
2FE4006FD0
07FFFFFF40
006BFFA400
ENDCHAR
STARTCHAR utilde
ENCODING 361
SWIDTH 931 0
DWIDTH 26 0
BBX 20 24 3 0
BITMAP
000BD02800
001C693400
002807E000
0000000000
0000000000
E00000000B
E00000000B
E00000000B
E00000000B
E00000000B
E00000000B
E00000000B
E00000000B
E00000000B
E00000000B
E00000000B
E00000000B
F00000000B
F00000001F
B4000001BF
7800001BEF
2F5006FE4B
0BFFFFE40B
01AFF9000B
ENDCHAR
STARTCHAR Umacron
ENCODING 362
SWIDTH 891 0
DWIDTH 25 0
BBX 19 23 3 0
BITMAP
001FFFD000
001FFFD000
0000000000
0000000000
E00000002C
E00000002C
E00000002C
E00000002C
E00000002C
E00000002C
E00000002C
E00000002C
E00000002C
E00000002C
E00000002C
E00000002C
E00000002C
F00000003C
B400000078
7D000002F4
2FE4006FD0
07FFFFFF40
006BFFA400
ENDCHAR
STARTCHAR umacron
ENCODING 363
SWIDTH 931 0
DWIDTH 26 0
BBX 20 23 3 0
BITMAP
000BFFE000
000BFFE000
0000000000
0000000000
E00000000B
E00000000B
E00000000B
E00000000B
E00000000B
E00000000B
E00000000B
E00000000B
E00000000B
E00000000B
E00000000B
E00000000B
F00000000B
F00000001F
B4000001BF
7800001BEF
2F5006FE4B
0BFFFFE40B
01AFF9000B
ENDCHAR
STARTCHAR Ubreve
ENCODING 364
SWIDTH 891 0
DWIDTH 25 0
BBX 19 24 3 0
BITMAP
003800B000
001E02D000
0006FE4000
0000000000
0000000000
E00000002C
E00000002C
E00000002C
E00000002C
E00000002C
E00000002C
E00000002C
E00000002C
E00000002C
E00000002C
E00000002C
E00000002C
E00000002C
F00000003C
B400000078
7D000002F4
2FE4006FD0
07FFFFFF40
006BFFA400
ENDCHAR
STARTCHAR ubreve
ENCODING 365
SWIDTH 931 0
DWIDTH 26 0
BBX 20 24 3 0
BITMAP
002C003800
000B41E000
0002FF8000
0000000000
0000000000
E00000000B
E00000000B
E00000000B
E00000000B
E00000000B
E00000000B
E00000000B
E00000000B
E00000000B
E00000000B
E00000000B
E00000000B
F00000000B
F00000001F
B4000001BF
7800001BEF
2F5006FE4B
0BFFFFE40B
01AFF9000B
ENDCHAR
STARTCHAR Uring
ENCODING 366
SWIDTH 891 0
DWIDTH 25 0
BBX 19 25 3 0
BITMAP
0002FE0000
000A028000
000D01C000
000A028000
0002FE0000
0000000000
E00000002C
E00000002C
E00000002C
E00000002C
E00000002C
E00000002C
E00000002C
E00000002C
E00000002C
E00000002C
E00000002C
E00000002C
E00000002C
F00000003C
B400000078
7D000002F4
2FE4006FD0
07FFFFFF40
006BFFA400
ENDCHAR
STARTCHAR uring
ENCODING 367
SWIDTH 931 0
DWIDTH 26 0
BBX 20 25 3 0
BITMAP
0001BE4000
000741D000
000B00E000
000741D000
0001BE4000
0000000000
E00000000B
E00000000B
E00000000B
E00000000B
E00000000B
E00000000B
E00000000B
E00000000B
E00000000B
E00000000B
E00000000B
E00000000B
F00000000B
F00000001F
B4000001BF
7800001BEF
2F5006FE4B
0BFFFFE40B
01AFF9000B
ENDCHAR
STARTCHAR Uhungarumlaut
ENCODING 368
SWIDTH 891 0
DWIDTH 25 0
BBX 19 24 3 0
BITMAP
0000601800
0001F0BC00
000B82E000
0009064000
0000000000
E00000002C
E00000002C
E00000002C
E00000002C
E00000002C
E00000002C
E00000002C
E00000002C
E00000002C
E00000002C
E00000002C
E00000002C
E00000002C
F00000003C
B400000078
7D000002F4
2FE4006FD0
07FFFFFF40
006BFFA400
ENDCHAR
STARTCHAR uhungarumlaut
ENCODING 369
SWIDTH 931 0
DWIDTH 26 0
BBX 20 24 3 0
BITMAP
0000240900
0000B87D00
0007D1E400
0006024000
0000000000
E00000000B
E00000000B
E00000000B
E00000000B
E00000000B
E00000000B
E00000000B
E00000000B
E00000000B
E00000000B
E00000000B
E00000000B
F00000000B
F00000001F
B4000001BF
7800001BEF
2F5006FE4B
0BFFFFE40B
01AFF9000B
ENDCHAR
STARTCHAR Uogonek
ENCODING 370
SWIDTH 891 0
DWIDTH 25 0
BBX 19 24 3 -5
BITMAP
E00000002C
E00000002C
E00000002C
E00000002C
E00000002C
E00000002C
E00000002C
E00000002C
E00000002C
E00000002C
E00000002C
E00000002C
E00000002C
F00000003C
B400000078
7D000002F4
2FE4006FD0
07FFFFFF40
006BFFA400
0000E00000
0002C00000
0003800000
0003818000
0001BE4000
ENDCHAR
STARTCHAR uogonek
ENCODING 371
SWIDTH 931 0
DWIDTH 26 0
BBX 22 24 3 -5
BITMAP
E00000000B00
E00000000B00
E00000000B00
E00000000B00
E00000000B00
E00000000B00
E00000000B00
E00000000B00
E00000000B00
E00000000B00
E00000000B00
E00000000B00
F00000000B00
F00000001F00
B4000001BF00
7800001BEF00
2F5006FE4B00
0BFFFFE40B00
01AFF9000F00
000000002900
00000000B000
00000000D000
00000000E060
000000006F80
ENDCHAR
STARTCHAR Wcircumflex
ENCODING 372
SWIDTH 1266 0
DWIDTH 35 0
BBX 34 24 1 0
BITMAP
00000001A000000000
0000001BFD00000000
000000B91B90000000
0000019000A0000000
000000000000000000
B0000002F0000002D0
78000003F400000380
3C000007B800000740
2D00000B2D00000F00
1E00000E1E00001E00
0B00002D0F00002D00
0740003C0740003800
03C000780380007400
02D000B002C000F000
01E000E001D001E000
00B001D000F002D000
007402C000B403C000
003C03800078074000
002D0B40002C0B0000
001E0F00001D1E0000
000B1D00000E2D0000
00076C00000B7C0000
0003F8000007F40000
0002F4000003F00000
ENDCHAR
STARTCHAR wcircumflex
ENCODING 373
SWIDTH 1266 0
DWIDTH 35 0
BBX 34 24 1 0
BITMAP
00000001A000000000
0000001BFD00000000
000000B91B90000000
0000019000A0000000
000000000000000000
B0000002F0000002D0
78000003F400000380
3C000007B800000740
2D00000B2D00000F00
1E00000E1E00001E00
0B00002D0F00002D00
0740003C0740003800
03C000780380007400
02D000B002C000F000
01E000E001D001E000
00B001D000F002D000
007402C000B403C000
003C03800078074000
002D0B40002C0B0000
001E0F00001D1E0000
000B1D00000E2D0000
00076C00000B7C0000
0003F8000007F40000
0002F4000003F00000
ENDCHAR
STARTCHAR Ycircumflex
ENCODING 374
SWIDTH 763 0
DWIDTH 21 0
BBX 19 24 1 0
BITMAP
0000680000
0006FF4000
002E46E400
0064002800
0000000000
B40000003C
2D000000F4
0F400002D0
07C0000B80
01E0001E00
00B8007C00
002D00F400
000F43D000
0007DB8000
0001FE0000
0000BC0000
0000780000
0000780000
0000780000
0000780000
0000780000
0000780000
0000780000
0000780000
ENDCHAR
STARTCHAR ycircumflex
ENCODING 375
SWIDTH 911 0
DWIDTH 26 0
BBX 21 24 2 0
BITMAP
00001D000000
0001FF900000
001B91B80000
002800190000
000000000000
740000000740
740000000740
740000000740
740000000740
740000000740
740000000740
780000000F40
380000002F40
2D000000BF40
1F400007E740
0BE5016F8740
01FFFFF90740
001BFE800B40
000000000F00
000000002E00
00000001BC00
6950006BF400
7FFFFFFF8000
16BFFFA40000
ENDCHAR
STARTCHAR Ydieresis
ENCODING 376
SWIDTH 763 0
DWIDTH 21 0
BBX 19 23 1 0
BITMAP
000F02D000
000F02D000
0000000000
0000000000
B40000003C
2D000000F4
0F400002D0
07C0000B80
01E0001E00
00B8007C00
002D00F400
000F43D000
0007DB8000
0001FE0000
0000BC0000
0000780000
0000780000
0000780000
0000780000
0000780000
0000780000
0000780000
0000780000
ENDCHAR
STARTCHAR Zacute
ENCODING 377
SWIDTH 728 0
DWIDTH 20 0
BBX 17 24 2 0
BITMAP
0000018000
00001F8000
0001F90000
0002400000
0000000000
BFFFFFFF40
BFFFFFFF00
0000002C00
000000B400
000002D000
00000B4000
00001E0000
0000780000
0001E00000
0003800000
000F000000
002D000000
00B4000000
02D0000000
0B40000000
1E00000000
7800000000
FFFFFFFF80
FFFFFFFF80
ENDCHAR
STARTCHAR zacute
ENCODING 378
SWIDTH 728 0
DWIDTH 20 0
BBX 17 24 2 0
BITMAP
0000018000
00001F8000
0001F90000
0002400000
0000000000
BFFFFFFF40
BFFFFFFF00
0000002C00
000000B400
000002D000
00000B4000
00001E0000
0000780000
0001E00000
0003800000
000F000000
002D000000
00B4000000
02D0000000
0B40000000
1E00000000
7800000000
FFFFFFFF80
FFFFFFFF80
ENDCHAR
STARTCHAR Zdotaccent
ENCODING 379
SWIDTH 728 0
DWIDTH 20 0
BBX 17 23 2 0
BITMAP
0002D00000
0002D00000
0000000000
0000000000
BFFFFFFF40
BFFFFFFF00
0000002C00
000000B400
000002D000
00000B4000
00001E0000
0000780000
0001E00000
0003800000
000F000000
002D000000
00B4000000
02D0000000
0B40000000
1E00000000
7800000000
FFFFFFFF80
FFFFFFFF80
ENDCHAR
STARTCHAR zdotaccent
ENCODING 380
SWIDTH 728 0
DWIDTH 20 0
BBX 17 23 2 0
BITMAP
0002D00000
0002D00000
0000000000
0000000000
BFFFFFFF40
BFFFFFFF00
0000002C00
000000B400
000002D000
00000B4000
00001E0000
0000780000
0001E00000
0003800000
000F000000
002D000000
00B4000000
02D0000000
0B40000000
1E00000000
7800000000
FFFFFFFF80
FFFFFFFF80
ENDCHAR
STARTCHAR Zcaron
ENCODING 381
SWIDTH 728 0
DWIDTH 20 0
BBX 17 24 2 0
BITMAP
0280019000
01B91B8000
001FF90000
0001D00000
0000000000
BFFFFFFF40
BFFFFFFF00
0000002C00
000000B400
000002D000
00000B4000
00001E0000
0000780000
0001E00000
0003800000
000F000000
002D000000
00B4000000
02D0000000
0B40000000
1E00000000
7800000000
FFFFFFFF80
FFFFFFFF80
ENDCHAR
STARTCHAR zcaron
ENCODING 382
SWIDTH 728 0
DWIDTH 20 0
BBX 17 24 2 0
BITMAP
0280019000
01B91B8000
001FF90000
0001D00000
0000000000
BFFFFFFF40
BFFFFFFF00
0000002C00
000000B400
000002D000
00000B4000
00001E0000
0000780000
0001E00000
0003800000
000F000000
002D000000
00B4000000
02D0000000
0B40000000
1E00000000
7800000000
FFFFFFFF80
FFFFFFFF80
ENDCHAR
STARTCHAR florin
ENCODING 402
SWIDTH 835 0
DWIDTH 23 0
BBX 23 20 0 -1
BITMAP
00000001BF90
0000000BFFF8
0000001F4054
0000003D0000
000000780000
000000B40000
000000F00000
0002FFFFF400
0002FFFFF400
000002D00000
000003C00000
000007800000
00000B400000
00000F000000
00001E000000
00002D000000
00007C000000
2401F4000000
7FFFD0000000
1BFE40000000
ENDCHAR
STARTCHAR AEacute
ENCODING 508
SWIDTH 1172 0
DWIDTH 33 0
BBX 31 24 0 0
BITMAP
0000000000018000
00000000001BD000
0000000001B90000
0000000002800000
0000000000000000
000000BFFFFFFFF8
000001FFFFFFFFF8
000003D380000000
00000B8380000000
00001E0380000000
00003C0380000000
0000B40380000000
0001E00380000000
0003C003FFFFFFE0
000B4003FFFFFFE0
001E000380000000
003C000380000000
00BFFFFF80000000
01FFFFFF80000000
03D0000380000000
0B80000380000000
1F00000380000000
3D000003FFFFFFF8
B8000003FFFFFFF8
ENDCHAR
STARTCHAR aeacute
ENCODING 509
SWIDTH 1551 0
DWIDTH 43 0
BBX 41 24 1 0
BITMAP
0000000000009000000000
00000000000BE000000000
0000000000BD0000000000
0000000001900000000000
0000000000000000000000
016AFFEA40001AFFA40000
0BFFFFFFF401BFFFFF8000
06940006BD0BE5005BE000
000000001F6E400000B800
0000000007F80000001E00
0000000003E00000000B00
0000000002D00000000340
0000016ABFC00000000380
0006BFFFFFFFFFFFFFFF80
01BFFA9503FFFFFFFFFFC0
0BF9000003C00000000000
2F40000002D00000000000
3C00000001E00000000000
7800000000F40000000000
7800000002FD0000000000
3D0000006FEF4000000000
1F94005BFE07F940016900
07FFFFFF9001BFFFFFFD00
006FFFA4000006BFFE9400
ENDCHAR
STARTCHAR Oslashacute
ENCODING 510
SWIDTH 983 0
DWIDTH 28 0
BBX 24 26 2 -2
BITMAP
000000064000
0000006F4000
000006E40000
00000A400380
000000000B00
0006AFFA5D00
007FFFFFFC00
02F94005FF40
0F900001D7E0
2E00000780F4
7800000E007C
B400002C002D
F0000074001D
E00001D0000E
E0000380000E
E0000B00000E
F0002C00001D
B0007400002D
7801E000007C
2E03800000F4
0F9B000007E0
02FE4005BF40
007FFFFFF900
00B5BFFA4000
01D000000000
078000000000
ENDCHAR
STARTCHAR oslashacute
ENCODING 511
SWIDTH 983 0
DWIDTH 28 0
BBX 24 26 2 -2
BITMAP
000000064000
0000006F4000
000006E40000
00000A400380
000000000B00
0006AFFA5D00
007FFFFFFC00
02F94005FF40
0F900001D7E0
2E00000780F4
7800000E007C
B400002C002D
F0000074001D
E00001D0000E
E0000380000E
E0000B00000E
F0002C00001D
B0007400002D
7801E000007C
2E03800000F4
0F9B000007E0
02FE4005BF40
007FFFFFF900
00B5BFFA4000
01D000000000
078000000000
ENDCHAR
STARTCHAR dotlessj
ENCODING 567
SWIDTH 590 0
DWIDTH 17 0
BBX 14 19 0 0
BITMAP
000001D0
000001D0
000001D0
000001D0
000001D0
000001D0
000001D0
000001D0
000001D0
000001D0
000001D0
000001D0
000001D0
000001D0
000002D0
000007C0
E5006F40
FFFFFD00
1AFF9000
ENDCHAR
STARTCHAR circumflex
ENCODING 710
SWIDTH 527 0
DWIDTH 15 0
BBX 11 4 2 15
BITMAP
007400
07FE40
6E46E0
A00064
ENDCHAR
STARTCHAR caron
ENCODING 711
SWIDTH 527 0
DWIDTH 15 0
BBX 11 4 2 15
BITMAP
A00064
6E46E0
07FE40
007400
ENDCHAR
STARTCHAR breve
ENCODING 728
SWIDTH 527 0
DWIDTH 15 0
BBX 9 3 3 16
BITMAP
E002C0
781B40
1BF900
ENDCHAR
STARTCHAR dotaccent
ENCODING 729
SWIDTH 527 0
DWIDTH 15 0
BBX 3 2 6 16
BITMAP
B4
B4
ENDCHAR
STARTCHAR ring
ENCODING 730
SWIDTH 527 0
DWIDTH 15 0
BBX 7 5 4 15
BITMAP
2FE0
E078
D02C
E078
2FE0
ENDCHAR
STARTCHAR ogonek
ENCODING 731
SWIDTH 527 0
DWIDTH 15 0
BBX 7 5 4 -5
BITMAP
0A00
3800
B000
B424
2FD0
ENDCHAR
STARTCHAR tilde
ENCODING 732
SWIDTH 527 0
DWIDTH 15 0
BBX 10 3 2 16
BITMAP
1F8030
34B4B0
701BD0
ENDCHAR
STARTCHAR hungarumlaut
ENCODING 733
SWIDTH 527 0
DWIDTH 15 0
BBX 9 4 4 15
BITMAP
060180
2F0B80
B82D00
906000
ENDCHAR
STARTCHAR commaaccent
ENCODING 806
SWIDTH 527 0
DWIDTH 15 0
BBX 3 4 6 -6
BITMAP
74
B4
B0
E0
ENDCHAR
STARTCHAR mu
ENCODING 956
SWIDTH 705 0
DWIDTH 20 0
BBX 16 19 1 -6
BITMAP
02C0000B
02C0000F
0380000E
0380001D
0740002D
0B00002C
0B00003C
0E000078
0E0000F8
1F4007F4
1FD06F74
2DFFF838
286F9038
38000000
74000000
74000000
B0000000
B0000000
E0000000
ENDCHAR
STARTCHAR Wgrave
ENCODING 7808
SWIDTH 1266 0
DWIDTH 35 0
BBX 34 24 1 0
BITMAP
000000A00000000000
000000BE0000000000
0000000BE000000000
000000006000000000
000000000000000000
B0000002F0000002D0
78000003F400000380
3C000007B800000740
2D00000B2D00000F00
1E00000E1E00001E00
0B00002D0F00002D00
0740003C0740003800
03C000780380007400
02D000B002C000F000
01E000E001D001E000
00B001D000F002D000
007402C000B403C000
003C03800078074000
002D0B40002C0B0000
001E0F00001D1E0000
000B1D00000E2D0000
00076C00000B7C0000
0003F8000007F40000
0002F4000003F00000
ENDCHAR
STARTCHAR wgrave
ENCODING 7809
SWIDTH 1266 0
DWIDTH 35 0
BBX 34 24 1 0
BITMAP
000000A00000000000
000000BE0000000000
0000000BE000000000
000000006000000000
000000000000000000
B0000002F0000002D0
78000003F400000380
3C000007B800000740
2D00000B2D00000F00
1E00000E1E00001E00
0B00002D0F00002D00
0740003C0740003800
03C000780380007400
02D000B002C000F000
01E000E001D001E000
00B001D000F002D000
007402C000B403C000
003C03800078074000
002D0B40002C0B0000
001E0F00001D1E0000
000B1D00000E2D0000
00076C00000B7C0000
0003F8000007F40000
0002F4000003F00000
ENDCHAR
STARTCHAR Wacute
ENCODING 7810
SWIDTH 1266 0
DWIDTH 35 0
BBX 34 24 1 0
BITMAP
000000000180000000
000000001BD0000000
00000001B900000000
000000028000000000
000000000000000000
B0000002F0000002D0
78000003F400000380
3C000007B800000740
2D00000B2D00000F00
1E00000E1E00001E00
0B00002D0F00002D00
0740003C0740003800
03C000780380007400
02D000B002C000F000
01E000E001D001E000
00B001D000F002D000
007402C000B403C000
003C03800078074000
002D0B40002C0B0000
001E0F00001D1E0000
000B1D00000E2D0000
00076C00000B7C0000
0003F8000007F40000
0002F4000003F00000
ENDCHAR
STARTCHAR wacute
ENCODING 7811
SWIDTH 1266 0
DWIDTH 35 0
BBX 34 24 1 0
BITMAP
000000000180000000
000000001BD0000000
00000001B900000000
000000028000000000
000000000000000000
B0000002F0000002D0
78000003F400000380
3C000007B800000740
2D00000B2D00000F00
1E00000E1E00001E00
0B00002D0F00002D00
0740003C0740003800
03C000780380007400
02D000B002C000F000
01E000E001D001E000
00B001D000F002D000
007402C000B403C000
003C03800078074000
002D0B40002C0B0000
001E0F00001D1E0000
000B1D00000E2D0000
00076C00000B7C0000
0003F8000007F40000
0002F4000003F00000
ENDCHAR
STARTCHAR Wdieresis
ENCODING 7812
SWIDTH 1266 0
DWIDTH 35 0
BBX 34 23 1 0
BITMAP
0000003C0B40000000
0000003C0B40000000
000000000000000000
000000000000000000
B0000002F0000002D0
78000003F400000380
3C000007B800000740
2D00000B2D00000F00
1E00000E1E00001E00
0B00002D0F00002D00
0740003C0740003800
03C000780380007400
02D000B002C000F000
01E000E001D001E000
00B001D000F002D000
007402C000B403C000
003C03800078074000
002D0B40002C0B0000
001E0F00001D1E0000
000B1D00000E2D0000
00076C00000B7C0000
0003F8000007F40000
0002F4000003F00000
ENDCHAR
STARTCHAR wdieresis
ENCODING 7813
SWIDTH 1266 0
DWIDTH 35 0
BBX 34 23 1 0
BITMAP
0000003C0B40000000
0000003C0B40000000
000000000000000000
000000000000000000
B0000002F0000002D0
78000003F400000380
3C000007B800000740
2D00000B2D00000F00
1E00000E1E00001E00
0B00002D0F00002D00
0740003C0740003800
03C000780380007400
02D000B002C000F000
01E000E001D001E000
00B001D000F002D000
007402C000B403C000
003C03800078074000
002D0B40002C0B0000
001E0F00001D1E0000
000B1D00000E2D0000
00076C00000B7C0000
0003F8000007F40000
0002F4000003F00000
ENDCHAR
STARTCHAR Ygrave
ENCODING 7922
SWIDTH 763 0
DWIDTH 21 0
BBX 19 24 1 0
BITMAP
0028000000
002F800000
0002F80000
0000180000
0000000000
B40000003C
2D000000F4
0F400002D0
07C0000B80
01E0001E00
00B8007C00
002D00F400
000F43D000
0007DB8000
0001FE0000
0000BC0000
0000780000
0000780000
0000780000
0000780000
0000780000
0000780000
0000780000
0000780000
ENDCHAR
STARTCHAR ygrave
ENCODING 7923
SWIDTH 911 0
DWIDTH 26 0
BBX 21 24 2 0
BITMAP
000900000000
001FD0000000
0001BD000000
00000A000000
000000000000
740000000740
740000000740
740000000740
740000000740
740000000740
740000000740
780000000F40
380000002F40
2D000000BF40
1F400007E740
0BE5016F8740
01FFFFF90740
001BFE800B40
000000000F00
000000002E00
00000001BC00
6950006BF400
7FFFFFFF8000
16BFFFA40000
ENDCHAR
STARTCHAR endash
ENCODING 8211
SWIDTH 419 0
DWIDTH 12 0
BBX 12 2 0 9
BITMAP
7FFFFD
7FFFFD
ENDCHAR
STARTCHAR emdash
ENCODING 8212
SWIDTH 1000 0
DWIDTH 28 0
BBX 28 2 0 9
BITMAP
FFFFFFFFFFFFFF
FFFFFFFFFFFFFF
ENDCHAR
STARTCHAR quoteleft
ENCODING 8216
SWIDTH 163 0
DWIDTH 5 0
BBX 3 5 1 14
BITMAP
28
34
74
B0
F0
ENDCHAR
STARTCHAR quoteright
ENCODING 8217
SWIDTH 163 0
DWIDTH 5 0
BBX 3 5 1 14
BITMAP
78
B4
B0
E0
D0
ENDCHAR
STARTCHAR quotesinglbase
ENCODING 8218
SWIDTH 163 0
DWIDTH 5 0
BBX 3 5 1 -3
BITMAP
78
B4
B0
E0
D0
ENDCHAR
STARTCHAR quotedblleft
ENCODING 8220
SWIDTH 303 0
DWIDTH 8 0
BBX 7 5 1 14
BITMAP
2838
3474
7474
B0B0
F0E0
ENDCHAR
STARTCHAR quotedblright
ENCODING 8221
SWIDTH 303 0
DWIDTH 8 0
BBX 7 5 1 14
BITMAP
7874
B4B4
B0B0
E0E0
D0D0
ENDCHAR
STARTCHAR quotedblbase
ENCODING 8222
SWIDTH 303 0
DWIDTH 8 0
BBX 7 5 1 -3
BITMAP
7874
B4B4
B0B0
E0E0
D0D0
ENDCHAR
STARTCHAR dagger
ENCODING 8224
SWIDTH 500 0
DWIDTH 14 0
BBX 10 19 2 0
BITMAP
00A000
00A000
00A000
00A000
00A000
7FFFD0
7FFFD0
00A000
00A000
00A000
00A000
00A000
00A000
00A000
00A000
00A000
00A000
00A000
00A000
ENDCHAR
STARTCHAR daggerdbl
ENCODING 8225
SWIDTH 500 0
DWIDTH 14 0
BBX 10 19 2 0
BITMAP
00A000
00A000
00A000
00A000
00A000
7FFFD0
7FFFD0
00A000
00A000
00A000
00A000
7FFFD0
7FFFD0
00A000
00A000
00A000
00A000
00A000
00A000
ENDCHAR
STARTCHAR bullet
ENCODING 8226
SWIDTH 352 0
DWIDTH 10 0
BBX 6 5 2 7
BITMAP
2F40
7FD0
BFE0
7FD0
2F40
ENDCHAR
STARTCHAR ellipsis
ENCODING 8230
SWIDTH 555 0
DWIDTH 16 0
BBX 13 3 1 0
BITMAP
B81F07C0
B81F07C0
B81F07C0
ENDCHAR
STARTCHAR perthousand
ENCODING 8240
SWIDTH 1401 0
DWIDTH 39 0
BBX 37 19 1 0
BITMAP
02FE4000074000000000
1E41E0001E0000000000
38007400380000000000
74002C00B00000000000
B0002C02D00000000000
B0002C07400000000000
7400281E000000000000
38007438000000000000
1E41E0B0000000000000
02FE42D06F90006FE400
00000743D07801E02D00
00001E0B001E03800B40
0000381D000B0B000380
0000B01D00074B000380
0002D01D00074B000380
0007800D000B0B000380
001E000B001E03800B40
003C0002D07801E02D00
00B400006F90006FE400
ENDCHAR
STARTCHAR guilsinglleft
ENCODING 8249
SWIDTH 257 0
DWIDTH 7 0
BBX 5 11 1 4
BITMAP
0180
0780
0F00
2D00
B400
F000
B400
2D00
0F00
0780
0180
ENDCHAR
STARTCHAR guilsinglright
ENCODING 8250
SWIDTH 257 0
DWIDTH 7 0
BBX 6 11 1 4
BITMAP
6000
B400
2D00
0F00
0780
02D0
0780
0F00
2D00
B400
6000
ENDCHAR
STARTCHAR fraction
ENCODING 8260
SWIDTH 200 0
DWIDTH 6 0
BBX 17 19 -6 0
BITMAP
0000000380
0000000B00
0000002D00
0000007400
000001E000
0000038000
00000B0000
00002D0000
0000780000
0000E00000
0003C00000
000B400000
001D000000
0078000000
00E0000000
02C0000000
0B40000000
1D00000000
7800000000
ENDCHAR
STARTCHAR Euro
ENCODING 8364
SWIDTH 833 0
DWIDTH 23 0
BBX 21 19 1 0
BITMAP
00006BFE9000
0006FFFFF900
001FD4016F40
007D00000240
00F400000000
02D000000000
03C000000000
FFFFFFFE0000
FFFFFFFD0000
074000000000
074000000000
FFFFFFF40000
FFFFFFF00000
038000000000
02E000000000
00F800000240
003F94016F40
000BFFFFF900
00006BFE4000
ENDCHAR
STARTCHAR trademark
ENCODING 8482
SWIDTH 773 0
DWIDTH 22 0
BBX 19 8 0 11
BITMAP
7FFE78003C
01807C007C
01807600EC
018073429C
018071831C
018070DA1C
0180706C1C
018070381C
ENDCHAR
STARTCHAR partialdiff
ENCODING 8706
SWIDTH 790 0
DWIDTH 22 0
BBX 20 19 1 0
BITMAP
0006BFE400
002FFFFF40
0029401BE0
00000001F4
0000000078
000000002C
000000001D
001AFF901D
01FFFFFE1D
0BE5006FED
1E000002FD
3C0000007C
7800000038
74000000B4
78000001E0
2D00000BC0
1F9401BE00
07FFFFF800
006FFE4000
ENDCHAR
STARTCHAR minus
ENCODING 8722
SWIDTH 634 0
DWIDTH 18 0
BBX 14 2 2 9
BITMAP
BFFFFFD0
BFFFFFD0
ENDCHAR
STARTCHAR uni2215
ENCODING 8725
SWIDTH 200 0
DWIDTH 6 0
BBX 17 19 -6 0
BITMAP
0000000380
0000000B00
0000002D00
0000007400
000001E000
0000038000
00000B0000
00002D0000
0000780000
0000E00000
0003C00000
000B400000
001D000000
0078000000
00E0000000
02C0000000
0B40000000
1D00000000
7800000000
ENDCHAR
STARTCHAR approxequal
ENCODING 8776
SWIDTH 634 0
DWIDTH 18 0
BBX 14 8 2 6
BITMAP
6FE94060
FFFFFFE0
9016BF80
00000000
00000000
6FE94060
FFFFFFE0
9016BF80
ENDCHAR
STARTCHAR notequal
ENCODING 8800
SWIDTH 634 0
DWIDTH 18 0
BBX 14 15 2 2
BITMAP
0000B000
0000E000
0001D000
0002C000
BFFFFFD0
BFFFFFD0
000B0000
000E0000
001D0000
BFFFFFD0
BFFFFFD0
00740000
00B00000
00E00000
01D00000
ENDCHAR
STARTCHAR lessequal
ENCODING 8804
SWIDTH 634 0
DWIDTH 18 0
BBX 14 14 2 1
BITMAP
00000190
00002FD0
0006FE40
01BF9000
2F900000
F8000000
2F900000
01BF9000
0006FE40
00002FD0
00000190
00000000
BFFFFFD0
BFFFFFD0
ENDCHAR
STARTCHAR greaterequal
ENCODING 8805
SWIDTH 634 0
DWIDTH 18 0
BBX 14 14 2 1
BITMAP
A4000000
BE400000
1BF90000
006FE400
0001BE40
000007E0
0001BE40
006FE400
1BF90000
BE400000
A4000000
00000000
BFFFFFD0
BFFFFFD0
ENDCHAR
STARTCHAR fi
ENCODING 64257
SWIDTH 1104 0
DWIDTH 31 0
BBX 25 19 3 0
BITMAP
006BFFFFF40380
07FFFFFFF40380
2F940000000380
7D000000000380
B4000000000380
B0000000000380
F0000000000380
F0000000000380
F0000000000380
FFFFFFFFF00380
FFFFFFFFF00380
F0000000000380
F0000000000380
F0000000000380
F0000000000380
F0000000000380
F0000000000380
F0000000000380
F0000000000380
ENDCHAR
STARTCHAR fl
ENCODING 64258
SWIDTH 1527 0
DWIDTH 43 0
BBX 40 19 3 0
BITMAP
006BFFFFF40380000000
07FFFFFFF40380000000
2F940000000380000000
7D000000000380000000
B4000000000380000000
B0000000000380000000
F0000000000380000000
F0000000000380000000
F0000000000380000000
FFFFFFFFF00380000000
FFFFFFFFF00380000000
F0000000000380000000
F0000000000380000000
F00000000003C0000000
F00000000002C0000000
F00000000002E0000000
F00000000001F9400000
F000000000007FFFFFFE
F0000000000006FFFFFE
ENDCHAR
STARTCHAR .notdef
ENCODING -1
SWIDTH 1000 0
DWIDTH 28 0
BBX 1 1 0 0
BITMAP
00
ENDCHAR
ENDFONT
